<svg width="213" height="60" viewBox="0 0 213 60" fill="none" xmlns="http://www.w3.org/2000/svg">
<rect width="213" height="60" rx="30" fill="#73C0BB"/>
<path d="M19.36 43.52C19.008 43.52 18.632 43.48 18.232 43.4C17.848 43.32 17.392 43.2 16.864 43.04L17.416 39.872C18.024 40.112 18.544 40.232 18.976 40.232C19.856 40.232 20.424 39.728 20.68 38.72L20.896 37.976L16.048 25.4H20.008L22.936 34.064L25.432 25.4H29.056L24.328 39.656C23.928 40.856 23.28 41.8 22.384 42.488C21.488 43.176 20.48 43.52 19.36 43.52ZM35.6502 38.216C34.2102 38.216 33.0182 37.976 32.0742 37.496C31.1462 37 30.4262 36.312 29.9142 35.432L32.9862 34.04C33.2422 34.392 33.5622 34.672 33.9462 34.88C34.3302 35.072 34.8262 35.168 35.4342 35.168C36.0902 35.168 36.5862 35.048 36.9222 34.808C37.2582 34.568 37.4262 34.264 37.4262 33.896C37.4262 33.544 37.2822 33.264 36.9942 33.056C36.7062 32.848 36.2662 32.736 35.6742 32.72H34.3542V30.392H35.6982C36.0982 30.392 36.4102 30.296 36.6342 30.104C36.8582 29.896 36.9702 29.632 36.9702 29.312C36.9702 28.976 36.8342 28.712 36.5622 28.52C36.3062 28.328 35.8902 28.232 35.3142 28.232C34.8022 28.232 34.3782 28.32 34.0422 28.496C33.7222 28.672 33.4582 28.936 33.2502 29.288L30.3702 27.752C30.8342 26.936 31.5062 26.304 32.3862 25.856C33.2822 25.408 34.3222 25.184 35.5062 25.184C36.4182 25.184 37.2422 25.32 37.9782 25.592C38.7142 25.864 39.2902 26.264 39.7062 26.792C40.1382 27.32 40.3542 27.976 40.3542 28.76C40.3542 29.288 40.2182 29.808 39.9462 30.32C39.6902 30.832 39.2502 31.2 38.6262 31.424C39.4102 31.664 39.9942 32.056 40.3782 32.6C40.7782 33.128 40.9782 33.76 40.9782 34.496C40.9782 35.296 40.7462 35.976 40.2822 36.536C39.8182 37.096 39.1782 37.52 38.3622 37.808C37.5622 38.08 36.6582 38.216 35.6502 38.216ZM43.324 38V25.4H47.164V29.96H51.46V25.4H55.3V38H51.46V33.128H47.164V38H43.324ZM57.4199 34.232C57.4199 33.4 57.6519 32.672 58.1159 32.048C58.5799 31.424 59.2199 30.936 60.0359 30.584C60.8519 30.216 61.7879 30.032 62.8439 30.032C63.3559 30.032 63.8599 30.08 64.3559 30.176C64.8519 30.256 65.2839 30.376 65.6519 30.536V29.984C65.6519 28.56 64.8119 27.848 63.1319 27.848C62.4279 27.848 61.7639 27.968 61.1399 28.208C60.5319 28.448 59.8839 28.792 59.1959 29.24L58.0439 26.792C59.7079 25.704 61.5319 25.16 63.5159 25.16C65.4039 25.16 66.8679 25.616 67.9079 26.528C68.9639 27.424 69.4919 28.728 69.4919 30.44V33.728C69.4919 34.112 69.5479 34.384 69.6599 34.544C69.7879 34.704 70.0039 34.792 70.3079 34.808V38C69.9719 38.064 69.6679 38.112 69.3959 38.144C69.1239 38.176 68.8839 38.192 68.6759 38.192C67.9559 38.192 67.4039 38.048 67.0199 37.76C66.6519 37.472 66.4199 37.08 66.3239 36.584L66.2519 36.032C65.6919 36.752 65.0199 37.304 64.2359 37.688C63.4519 38.056 62.6439 38.24 61.8119 38.24C60.9799 38.24 60.2279 38.064 59.5559 37.712C58.8999 37.36 58.3799 36.888 57.9959 36.296C57.6119 35.688 57.4199 35 57.4199 34.232ZM65.0519 34.712C65.4519 34.392 65.6519 34.064 65.6519 33.728V32.6C65.3159 32.472 64.9479 32.376 64.5479 32.312C64.1639 32.232 63.8119 32.192 63.4919 32.192C62.7719 32.192 62.1799 32.352 61.7159 32.672C61.2679 32.992 61.0439 33.4 61.0439 33.896C61.0439 34.328 61.2119 34.704 61.5479 35.024C61.8999 35.328 62.3639 35.48 62.9399 35.48C63.3239 35.48 63.7079 35.408 64.0919 35.264C64.4759 35.12 64.7959 34.936 65.0519 34.712ZM75.2057 38V28.76H71.3897V25.4H82.8617V28.76H79.0457V38H75.2057ZM84.7549 38V25.4H88.5949V29.168H91.3069C92.8269 29.168 93.9949 29.56 94.8109 30.344C95.6429 31.128 96.0589 32.168 96.0589 33.464C96.0589 34.808 95.6749 35.904 94.9069 36.752C94.1389 37.584 93.0189 38 91.5469 38H84.7549ZM88.5949 35.096H90.9229C91.4509 35.096 91.8429 34.944 92.0989 34.64C92.3549 34.336 92.4829 33.952 92.4829 33.488C92.4829 33.04 92.3549 32.664 92.0989 32.36C91.8589 32.056 91.4589 31.904 90.8989 31.904H88.5949V35.096ZM110.44 38.24C108.248 38.24 106.576 37.6 105.424 36.32C104.288 35.024 103.72 33.096 103.72 30.536C103.72 28.536 103.96 26.928 104.44 25.712C104.92 24.496 105.648 23.56 106.624 22.904C107.616 22.248 108.856 21.76 110.344 21.44L115.768 20.216L115.816 23.24L110.368 24.56C109.296 24.848 108.4 25.328 107.68 26C106.976 26.672 106.568 27.624 106.456 28.856C106.952 28.104 107.616 27.504 108.448 27.056C109.296 26.608 110.328 26.384 111.544 26.384C112.632 26.384 113.6 26.624 114.448 27.104C115.296 27.584 115.96 28.248 116.44 29.096C116.92 29.928 117.16 30.896 117.16 32C117.16 33.2 116.904 34.272 116.392 35.216C115.88 36.144 115.12 36.88 114.112 37.424C113.12 37.968 111.896 38.24 110.44 38.24ZM110.44 35C111.272 35 111.944 34.744 112.456 34.232C112.968 33.72 113.224 33.04 113.224 32.192C113.224 31.392 112.968 30.736 112.456 30.224C111.96 29.696 111.288 29.432 110.44 29.432C109.64 29.432 108.976 29.688 108.448 30.2C107.92 30.696 107.656 31.36 107.656 32.192C107.656 33.04 107.904 33.72 108.4 34.232C108.912 34.744 109.592 35 110.44 35ZM125.295 38.24C123.855 38.24 122.631 37.936 121.623 37.328C120.631 36.72 119.871 35.92 119.343 34.928C118.815 33.936 118.551 32.864 118.551 31.712C118.551 30.544 118.815 29.464 119.343 28.472C119.871 27.48 120.639 26.68 121.647 26.072C122.655 25.464 123.871 25.16 125.295 25.16C126.719 25.16 127.935 25.464 128.943 26.072C129.951 26.68 130.719 27.48 131.247 28.472C131.775 29.464 132.039 30.544 132.039 31.712C132.039 32.864 131.775 33.936 131.247 34.928C130.719 35.92 129.951 36.72 128.943 37.328C127.935 37.936 126.719 38.24 125.295 38.24ZM122.487 31.712C122.487 32.688 122.751 33.48 123.279 34.088C123.823 34.696 124.495 35 125.295 35C126.079 35 126.735 34.696 127.263 34.088C127.807 33.48 128.079 32.688 128.079 31.712C128.079 30.736 127.807 29.944 127.263 29.336C126.735 28.728 126.079 28.424 125.295 28.424C124.495 28.424 123.823 28.728 123.279 29.336C122.751 29.944 122.487 30.736 122.487 31.712ZM133.367 38.192V34.784C133.879 34.784 134.311 34.648 134.663 34.376C135.015 34.088 135.295 33.568 135.503 32.816C135.711 32.064 135.847 30.968 135.911 29.528L136.079 25.4H146.039V38H142.199V28.76H139.487L139.439 29.936C139.327 32.064 139.047 33.728 138.599 34.928C138.151 36.128 137.495 36.968 136.631 37.448C135.783 37.928 134.695 38.176 133.367 38.192ZM148.978 38V25.4H152.818V29.168H155.53C157.05 29.168 158.218 29.56 159.034 30.344C159.866 31.128 160.282 32.168 160.282 33.464C160.282 34.808 159.898 35.904 159.13 36.752C158.362 37.584 157.242 38 155.77 38H148.978ZM152.818 35.096H155.146C155.674 35.096 156.066 34.944 156.322 34.64C156.578 34.336 156.706 33.952 156.706 33.488C156.706 33.04 156.578 32.664 156.322 32.36C156.082 32.056 155.682 31.904 155.122 31.904H152.818V35.096ZM162.39 38V25.4H166.23V34.664H169.71V25.4H173.55V34.664H177.03V25.4H180.87V38H162.39ZM189.794 38.24C188.37 38.24 187.154 37.944 186.146 37.352C185.138 36.76 184.362 35.976 183.818 35C183.29 34.024 183.026 32.968 183.026 31.832C183.026 30.616 183.29 29.504 183.818 28.496C184.346 27.488 185.114 26.68 186.122 26.072C187.13 25.464 188.354 25.16 189.794 25.16C191.218 25.16 192.434 25.464 193.442 26.072C194.45 26.68 195.21 27.48 195.722 28.472C196.25 29.464 196.514 30.528 196.514 31.664C196.514 32.128 196.482 32.536 196.418 32.888H187.106C187.17 33.736 187.474 34.384 188.018 34.832C188.578 35.264 189.21 35.48 189.914 35.48C190.474 35.48 191.01 35.344 191.522 35.072C192.034 34.8 192.386 34.432 192.578 33.968L195.842 34.88C195.346 35.872 194.57 36.68 193.514 37.304C192.474 37.928 191.234 38.24 189.794 38.24ZM187.01 30.536H192.482C192.402 29.736 192.106 29.104 191.594 28.64C191.098 28.16 190.482 27.92 189.746 27.92C189.01 27.92 188.386 28.16 187.874 28.64C187.378 29.12 187.09 29.752 187.01 30.536Z" fill="white"/>
</svg>
