<svg width="167" height="202" viewBox="0 0 167 202" fill="none" xmlns="http://www.w3.org/2000/svg">
<g filter="url(#filter0_d)">
<ellipse cx="83.0998" cy="82.5" rx="62.0307" ry="61.5" fill="white"/>
</g>
<path d="M121.948 121.016V81.1719H119.269V75.8594H116.589V67.8906H113.91V62.5781H111.231V67.8906H108.552V75.8594H105.873V46.3484L97.8352 47.9422V43.9844H95.156V48.4734L92.4769 49.0047V41.3281H89.7977V49.5359L87.1185 50.0672V43.9844H84.4394V50.5998L76.4018 52.1935V59.9219H52.2893V62.5781H54.9685V78.6365C54.5291 78.5648 54.0844 78.5156 53.6289 78.5156C48.4594 78.5156 44.2518 83.2823 44.2518 89.1406C44.2518 94.4823 47.7535 98.9037 52.2893 99.6448V101.375C51.1681 100.37 49.7789 99.7656 48.2706 99.7656C44.5773 99.7656 41.5726 103.34 41.5726 107.734C41.5726 111.583 43.8781 114.801 46.931 115.542V121.016H41.5726V123.672H124.627V121.016H121.948ZM63.006 119.688C63.006 117.491 64.8091 115.703 67.0248 115.703C68.4715 115.703 69.8138 116.48 70.5278 117.731L70.943 118.46L72.3831 118.359C72.7769 118.359 73.1922 118.435 73.653 118.589L74.9551 119.022L75.361 117.722C76.2331 114.926 78.8051 113.047 81.7602 113.047C84.1956 113.047 86.4434 114.363 87.6262 116.483L88.4635 117.986L89.72 116.804C91.2297 115.386 93.7227 115.386 95.2324 116.804L96.4889 117.986L97.3262 116.483C98.5104 114.363 100.758 113.047 103.194 113.047C106.102 113.047 108.66 114.89 109.561 117.634L109.937 118.78L111.125 118.52C113.78 117.936 116.375 119.019 117.901 121.016H63.2659C63.1132 120.588 63.006 120.146 63.006 119.688ZM119.269 83.8281V118.541C118.492 117.752 117.59 117.103 116.589 116.628V86.4844H97.8352V112.077C97.0837 112.598 96.3992 113.217 95.8232 113.942C95.6088 113.819 95.3838 113.714 95.156 113.617V83.8281H119.269ZM103.194 110.391C102.272 110.391 101.373 110.539 100.514 110.794V89.1406H105.873V110.776C105.019 110.525 104.119 110.391 103.194 110.391ZM108.552 89.1406H113.91V115.828C113.183 115.723 112.442 115.673 111.685 115.746C110.977 114.241 109.881 112.995 108.552 112.075V89.1406ZM97.8352 81.1719V78.5156H116.589V81.1719H97.8352ZM111.231 70.5469H113.91V75.8594H111.231V70.5469ZM103.194 49.5891V75.8594H95.156V81.1719H92.4769V113.067C91.3088 113.067 90.142 113.359 89.1306 113.942C87.369 111.723 84.6604 110.391 81.7602 110.391C80.8332 110.391 79.933 110.523 79.081 110.772V54.369L103.194 49.5891ZM57.6477 62.5781H76.4018V112.065C75.0623 112.99 73.9611 114.247 73.2525 115.77C72.9698 115.731 72.6832 115.71 72.3858 115.707C71.1306 114.048 69.1453 113.047 67.0248 113.047C63.3315 113.047 60.3268 116.026 60.3268 119.688C60.3268 120.136 60.3871 120.579 60.4769 121.016H54.9685V116.193L63.006 106.898V103.629C67.5418 102.888 71.0435 98.4667 71.0435 93.125C71.0435 89.1273 69.0824 85.641 66.1956 83.8281H68.3643V81.1719H65.6852V83.5399C64.4648 82.8798 63.1051 82.5 61.6664 82.5C61.436 82.5 61.2002 82.5146 60.9618 82.5372C60.0763 81.2768 58.943 80.2555 57.6477 79.5555V62.5781ZM63.006 89.1406C63.006 87.7461 62.7609 86.4166 62.3282 85.1961C65.712 85.5932 68.3643 88.9972 68.3643 93.125C68.3643 97.5198 65.3596 101.094 61.6664 101.094C59.9759 101.094 58.3697 100.322 57.144 98.9834C60.576 97.4042 63.006 93.5898 63.006 89.1406ZM54.9685 100.537C56.4059 102.208 58.2799 103.3 60.3268 103.633V105.916L54.9685 112.115V100.537ZM46.931 89.1406C46.931 84.7459 49.9357 81.1719 53.6289 81.1719C57.3221 81.1719 60.3268 84.7459 60.3268 89.1406C60.3268 92.9895 58.0214 96.2076 54.9685 96.9487V87.8125H52.2893V96.9487C49.2364 96.2076 46.931 92.9895 46.931 89.1406ZM44.2518 107.734C44.2518 104.805 46.0549 102.422 48.2706 102.422C50.4862 102.422 52.2893 104.805 52.2893 107.734C52.2893 110.664 50.4862 113.047 48.2706 113.047C46.0549 113.047 44.2518 110.664 44.2518 107.734ZM49.6101 115.542C50.6014 115.302 51.5097 114.793 52.2893 114.095V121.016H49.6101V115.542Z" fill="black"/>
<path d="M89.7978 57.2656H81.7603V67.8906H89.7978V57.2656ZM87.1186 65.2344H84.4394V59.9219H87.1186V65.2344Z" fill="black"/>
<path d="M89.7978 70.5469H81.7603V81.1719H89.7978V70.5469ZM87.1186 78.5156H84.4394V73.2031H87.1186V78.5156Z" fill="black"/>
<path d="M89.7978 83.8281H81.7603V94.4531H89.7978V83.8281ZM87.1186 91.7969H84.4394V86.4844H87.1186V91.7969Z" fill="black"/>
<path d="M89.7978 97.1094H81.7603V107.734H89.7978V97.1094ZM87.1186 105.078H84.4394V99.7656H87.1186V105.078Z" fill="black"/>
<path d="M100.514 57.2656H92.4769V67.8906H100.514V57.2656ZM97.8353 65.2344H95.1561V59.9219H97.8353V65.2344Z" fill="black"/>
<path d="M60.3268 65.2344H63.006V67.8906H60.3268V65.2344Z" fill="black"/>
<path d="M65.6852 65.2344H68.3643V67.8906H65.6852V65.2344Z" fill="black"/>
<path d="M71.0435 65.2344H73.7226V67.8906H71.0435V65.2344Z" fill="black"/>
<path d="M60.3268 70.5469H63.006V73.2031H60.3268V70.5469Z" fill="black"/>
<path d="M65.6852 70.5469H68.3643V73.2031H65.6852V70.5469Z" fill="black"/>
<path d="M71.0435 70.5469H73.7226V73.2031H71.0435V70.5469Z" fill="black"/>
<path d="M65.6852 75.8594H68.3643V78.5156H65.6852V75.8594Z" fill="black"/>
<path d="M60.3268 75.8594H63.006V78.5156H60.3268V75.8594Z" fill="black"/>
<path d="M71.0435 75.8594H73.7226V78.5156H71.0435V75.8594Z" fill="black"/>
<path d="M71.0435 81.1719H73.7226V83.8281H71.0435V81.1719Z" fill="black"/>
<path d="M17.1486 191V173.96H19.8366V181.088H21.8286L27.1806 173.96H30.2526L23.9886 182.216L30.7086 191H27.4206L21.8286 183.56H19.8366V191H17.1486ZM45.1073 188.624V191H33.4193V173.96H44.8913V176.336H36.1073V181.184H43.7153V183.416H36.1073V188.624H45.1073ZM62.4482 191V178.856L57.4322 188.072H55.8482L50.8082 178.856V191H48.1202V173.96H51.0002L56.6402 184.376L62.2802 173.96H65.1602V191H62.4482ZM80.9311 188.624V191H69.2431V173.96H80.7151V176.336H71.9311V181.184H79.5391V183.416H71.9311V188.624H80.9311ZM83.944 191V173.96H91.096C91.864 173.96 92.568 174.12 93.208 174.44C93.864 174.76 94.424 175.184 94.888 175.712C95.368 176.24 95.736 176.832 95.992 177.488C96.248 178.144 96.376 178.816 96.376 179.504C96.376 180.464 96.16 181.368 95.728 182.216C95.296 183.064 94.696 183.752 93.928 184.28C93.16 184.808 92.264 185.072 91.24 185.072H86.632V191H83.944ZM86.632 182.696H91.072C91.824 182.696 92.44 182.392 92.92 181.784C93.4 181.176 93.64 180.416 93.64 179.504C93.64 178.88 93.512 178.336 93.256 177.872C93 177.392 92.664 177.016 92.248 176.744C91.848 176.472 91.408 176.336 90.928 176.336H86.632V182.696ZM106.217 191.12C105.001 191.12 103.889 190.88 102.881 190.4C101.889 189.92 101.033 189.272 100.313 188.456C99.5931 187.624 99.0331 186.696 98.6331 185.672C98.2491 184.632 98.0571 183.568 98.0571 182.48C98.0571 181.344 98.2651 180.264 98.6811 179.24C99.0971 178.2 99.6731 177.28 100.409 176.48C101.145 175.664 102.009 175.024 103.001 174.56C104.009 174.08 105.097 173.84 106.265 173.84C107.481 173.84 108.585 174.088 109.577 174.584C110.585 175.08 111.441 175.744 112.145 176.576C112.865 177.408 113.417 178.336 113.801 179.36C114.201 180.384 114.401 181.432 114.401 182.504C114.401 183.64 114.193 184.728 113.777 185.768C113.377 186.792 112.809 187.712 112.073 188.528C111.337 189.328 110.465 189.96 109.457 190.424C108.465 190.888 107.385 191.12 106.217 191.12ZM100.793 182.48C100.793 183.552 101.017 184.568 101.465 185.528C101.913 186.472 102.537 187.24 103.337 187.832C104.153 188.408 105.121 188.696 106.241 188.696C107.089 188.696 107.849 188.52 108.521 188.168C109.193 187.816 109.761 187.344 110.225 186.752C110.689 186.144 111.041 185.472 111.281 184.736C111.521 184 111.641 183.248 111.641 182.48C111.641 181.408 111.417 180.4 110.969 179.456C110.537 178.512 109.913 177.752 109.097 177.176C108.281 176.584 107.329 176.288 106.241 176.288C105.377 176.288 104.609 176.464 103.937 176.816C103.265 177.168 102.697 177.64 102.233 178.232C101.769 178.824 101.409 179.488 101.153 180.224C100.913 180.96 100.793 181.712 100.793 182.48ZM130.816 186.608C130.816 187.52 130.576 188.304 130.096 188.96C129.616 189.616 128.976 190.12 128.176 190.472C127.392 190.824 126.52 191 125.56 191H117.424V173.96H126.208C127.008 173.96 127.696 174.176 128.272 174.608C128.848 175.024 129.296 175.568 129.616 176.24C129.936 176.912 130.096 177.6 130.096 178.304C130.096 179.136 129.88 179.92 129.448 180.656C129.032 181.376 128.432 181.912 127.648 182.264C128.608 182.552 129.376 183.08 129.952 183.848C130.528 184.6 130.816 185.52 130.816 186.608ZM120.112 176.288V181.304H125.056C125.728 181.304 126.288 181.072 126.736 180.608C127.184 180.128 127.408 179.528 127.408 178.808C127.408 178.072 127.2 177.472 126.784 177.008C126.368 176.528 125.84 176.288 125.2 176.288H120.112ZM128.056 186.104C128.056 185.4 127.832 184.784 127.384 184.256C126.952 183.728 126.4 183.464 125.728 183.464H120.112V188.672H125.56C126.264 188.672 126.856 188.424 127.336 187.928C127.816 187.416 128.056 186.808 128.056 186.104ZM140.939 191.12C139.723 191.12 138.611 190.88 137.603 190.4C136.611 189.92 135.755 189.272 135.035 188.456C134.315 187.624 133.755 186.696 133.355 185.672C132.971 184.632 132.779 183.568 132.779 182.48C132.779 181.344 132.987 180.264 133.403 179.24C133.819 178.2 134.395 177.28 135.131 176.48C135.867 175.664 136.731 175.024 137.723 174.56C138.731 174.08 139.819 173.84 140.987 173.84C142.203 173.84 143.307 174.088 144.299 174.584C145.307 175.08 146.163 175.744 146.867 176.576C147.587 177.408 148.139 178.336 148.523 179.36C148.923 180.384 149.123 181.432 149.123 182.504C149.123 183.64 148.915 184.728 148.499 185.768C148.099 186.792 147.531 187.712 146.795 188.528C146.059 189.328 145.187 189.96 144.179 190.424C143.187 190.888 142.107 191.12 140.939 191.12ZM135.515 182.48C135.515 183.552 135.739 184.568 136.187 185.528C136.635 186.472 137.259 187.24 138.059 187.832C138.875 188.408 139.843 188.696 140.963 188.696C141.811 188.696 142.571 188.52 143.243 188.168C143.915 187.816 144.483 187.344 144.947 186.752C145.411 186.144 145.763 185.472 146.003 184.736C146.243 184 146.363 183.248 146.363 182.48C146.363 181.408 146.139 180.4 145.691 179.456C145.259 178.512 144.635 177.752 143.819 177.176C143.003 176.584 142.051 176.288 140.963 176.288C140.099 176.288 139.331 176.464 138.659 176.816C137.987 177.168 137.419 177.64 136.955 178.232C136.491 178.824 136.131 179.488 135.875 180.224C135.635 180.96 135.515 181.712 135.515 182.48Z" fill="black"/>
<defs>
<filter id="filter0_d" x="0.0690918" y="0" width="166.061" height="165" filterUnits="userSpaceOnUse" color-interpolation-filters="sRGB">
<feFlood flood-opacity="0" result="BackgroundImageFix"/>
<feColorMatrix in="SourceAlpha" type="matrix" values="0 0 0 0 0 0 0 0 0 0 0 0 0 0 0 0 0 0 127 0"/>
<feMorphology radius="1" operator="dilate" in="SourceAlpha" result="effect1_dropShadow"/>
<feOffset/>
<feGaussianBlur stdDeviation="10"/>
<feColorMatrix type="matrix" values="0 0 0 0 0.45098 0 0 0 0 0.752941 0 0 0 0 0.733333 0 0 0 1 0"/>
<feBlend mode="normal" in2="BackgroundImageFix" result="effect1_dropShadow"/>
<feBlend mode="normal" in="SourceGraphic" in2="effect1_dropShadow" result="shape"/>
</filter>
</defs>
</svg>
