<svg width="167" height="202" viewBox="0 0 167 202" fill="none" xmlns="http://www.w3.org/2000/svg">
<g filter="url(#filter0_d)">
<ellipse cx="83.4074" cy="82.5" rx="62.0307" ry="61.5" fill="white"/>
</g>
<g clip-path="url(#clip0)">
<path d="M94.8386 95.25C94.8386 94.4681 94.1984 93.8334 93.4097 93.8334C92.6211 93.8334 91.9809 94.4681 91.9809 95.25V98.0834C91.9809 98.8653 92.6211 99.5 93.4097 99.5C94.1984 99.5 94.8386 98.8653 94.8386 98.0834V95.25Z" fill="black"/>
<path d="M93.4095 110.833C92.6209 110.833 91.9807 111.468 91.9807 112.25V117.917C91.9807 118.699 92.6209 119.333 93.4095 119.333C94.1982 119.333 94.8384 118.699 94.8384 117.917V112.25C94.8386 111.468 94.1984 110.833 93.4095 110.833Z" fill="black"/>
<path d="M100.554 78.25C100.554 77.4681 99.9139 76.8334 99.1252 76.8334C98.3366 76.8334 97.6964 77.4681 97.6964 78.25V81.0834C97.6964 81.8653 98.3366 82.5 99.1252 82.5C99.9139 82.5 100.554 81.8653 100.554 81.0834V78.25Z" fill="black"/>
<path d="M94.8386 86.75C94.8386 85.9681 94.1984 85.3334 93.4097 85.3334C92.6211 85.3334 91.9809 85.9681 91.9809 86.75V89.5834C91.9809 90.3653 92.6211 91 93.4097 91C94.1984 91 94.8386 90.3653 94.8386 89.5834V86.75Z" fill="black"/>
<path d="M94.8386 103.75C94.8386 102.968 94.1984 102.333 93.4097 102.333C92.621 102.333 91.9807 102.968 91.9807 103.75V106.583C91.9807 107.365 92.6209 108 93.4095 108C94.1982 108 94.8384 107.365 94.8384 106.583V103.75H94.8386Z" fill="black"/>
<path d="M100.554 86.75C100.554 85.9681 99.9139 85.3334 99.1252 85.3334C98.3366 85.3334 97.6964 85.9681 97.6964 86.75V89.5834C97.6964 90.3653 98.3366 91 99.1252 91C99.9139 91 100.554 90.3653 100.554 89.5834V86.75Z" fill="black"/>
<path d="M89.1229 78.25C89.1229 77.4681 88.4827 76.8334 87.694 76.8334C86.9054 76.8334 86.2652 77.4681 86.2652 78.25V81.0834C86.2652 81.8653 86.9054 82.5 87.694 82.5C88.4827 82.5 89.1229 81.8653 89.1229 81.0834V78.25Z" fill="black"/>
<path d="M94.8386 78.25C94.8386 77.4681 94.1984 76.8334 93.4097 76.8334C92.6211 76.8334 91.9809 77.4681 91.9809 78.25V81.0834C91.9809 81.8653 92.6211 82.5 93.4097 82.5C94.1984 82.5 94.8386 81.8653 94.8386 81.0834V78.25Z" fill="black"/>
<path d="M100.554 64.0834V61.25C100.554 60.4681 99.9139 59.8334 99.1252 59.8334C98.3366 59.8334 97.6964 60.4681 97.6964 61.25V64.0834C97.6964 64.8653 98.3366 65.5 99.1252 65.5C99.9139 65.5 100.554 64.8653 100.554 64.0834Z" fill="black"/>
<path d="M89.1229 86.75C89.1229 85.9681 88.4827 85.3334 87.694 85.3334C86.9054 85.3334 86.2652 85.9681 86.2652 86.75V89.5834C86.2652 90.3653 86.9054 91 87.694 91C88.4827 91 89.1229 90.3653 89.1229 89.5834V86.75Z" fill="black"/>
<path d="M106.27 61.25C106.27 60.4681 105.629 59.8334 104.841 59.8334C104.052 59.8334 103.412 60.4681 103.412 61.25V64.0834C103.412 64.8653 104.052 65.5 104.841 65.5C105.629 65.5 106.27 64.8653 106.27 64.0834V61.25Z" fill="black"/>
<path d="M87.694 93.8334C86.9054 93.8334 86.2652 94.4681 86.2652 95.25V98.0834C86.2652 98.8653 86.9054 99.5 87.694 99.5C88.4827 99.5 89.1229 98.8653 89.1229 98.0834V95.25C89.1229 94.4681 88.4827 93.8334 87.694 93.8334Z" fill="black"/>
<path d="M111.985 103.75C111.985 102.968 111.345 102.333 110.556 102.333C109.768 102.333 109.127 102.968 109.127 103.75V106.583C109.127 107.365 109.768 108 110.556 108C111.345 108 111.985 107.365 111.985 106.583V103.75H111.985Z" fill="black"/>
<path d="M110.556 110.833C109.768 110.833 109.127 111.468 109.127 112.25V117.917C109.127 118.699 109.768 119.333 110.556 119.333C111.345 119.333 111.985 118.699 111.985 117.917V112.25C111.985 111.468 111.345 110.833 110.556 110.833Z" fill="black"/>
<path d="M116.272 93.8334C115.483 93.8334 114.843 94.4681 114.843 95.25V98.0834C114.843 98.8653 115.483 99.5 116.272 99.5C117.061 99.5 117.701 98.8653 117.701 98.0834V95.25C117.701 94.4681 117.061 93.8334 116.272 93.8334Z" fill="black"/>
<path d="M93.4095 65.5C94.1982 65.5 94.8384 64.8653 94.8384 64.0834V58.1065L109.127 54.5647V78.25C109.127 78.8407 109.497 79.3691 110.055 79.5775L120.559 83.4818V98.0834C120.559 98.8653 121.199 99.5 121.987 99.5C122.776 99.5 123.416 98.8653 123.416 98.0834V82.5C123.416 81.9093 123.046 81.3809 122.489 81.1725L111.985 77.2682V49.9166C111.985 49.1347 111.345 48.5 110.556 48.5C109.768 48.5 109.127 49.1347 109.127 49.9166V51.6435L93.0624 55.6257C92.4266 55.7829 91.9807 56.3497 91.9807 56.9998V64.0832C91.9807 64.8653 92.6209 65.5 93.4095 65.5Z" fill="black"/>
<path d="M117.701 86.75C117.701 85.9681 117.061 85.3334 116.272 85.3334C115.483 85.3334 114.843 85.9681 114.843 86.75V89.5834C114.843 90.3653 115.483 91 116.272 91C117.061 91 117.701 90.3653 117.701 89.5834V86.75Z" fill="black"/>
<path d="M111.985 86.75C111.985 85.9681 111.345 85.3334 110.556 85.3334C109.768 85.3334 109.128 85.9681 109.128 86.75V89.5834C109.128 90.3653 109.768 91 110.556 91C111.345 91 111.985 90.3653 111.985 89.5834V86.75Z" fill="black"/>
<path d="M100.554 103.75C100.554 102.968 99.9139 102.333 99.1252 102.333C98.3366 102.333 97.6964 102.968 97.6964 103.75V106.583C97.6964 107.365 98.3366 108 99.1252 108C99.9139 108 100.554 107.365 100.554 106.583V103.75Z" fill="black"/>
<path d="M111.985 95.25C111.985 94.4681 111.345 93.8334 110.556 93.8334C109.768 93.8334 109.128 94.4681 109.128 95.25V98.0834C109.128 98.8653 109.768 99.5 110.556 99.5C111.345 99.5 111.985 98.8653 111.985 98.0834V95.25Z" fill="black"/>
<path d="M99.1252 110.833C98.3366 110.833 97.6964 111.468 97.6964 112.25V117.917C97.6964 118.699 98.3366 119.333 99.1252 119.333C99.9139 119.333 100.554 118.699 100.554 117.917V112.25C100.554 111.468 99.9139 110.833 99.1252 110.833Z" fill="black"/>
<path d="M100.554 95.25C100.554 94.4681 99.9139 93.8334 99.1252 93.8334C98.3366 93.8334 97.6964 94.4681 97.6964 95.25V98.0834C97.6964 98.8653 98.3366 99.5 99.1252 99.5C99.9139 99.5 100.554 98.8653 100.554 98.0834V95.25Z" fill="black"/>
<path d="M104.841 119.333C105.629 119.333 106.27 118.699 106.27 117.917V72.5834C106.27 71.9331 105.822 71.3665 105.188 71.2093L82.3257 65.5425C81.9014 65.4363 81.4454 65.5325 81.0996 65.8003C80.7523 66.0681 80.5496 66.4803 80.5496 66.9166V98.0832C80.5496 98.8652 81.1897 99.4998 81.9784 99.4998C82.7671 99.4998 83.4072 98.8652 83.4072 98.0832V68.7315L103.412 73.6899V117.917C103.412 118.699 104.052 119.333 104.841 119.333Z" fill="black"/>
<path d="M71.9762 69.75C71.9762 68.968 71.336 68.3334 70.5474 68.3334C69.7587 68.3334 69.1185 68.968 69.1185 69.75V72.5834C69.1185 73.3653 69.7587 74 70.5474 74C71.336 74 71.9762 73.3653 71.9762 72.5834V69.75Z" fill="black"/>
<path d="M71.9762 61.25C71.9762 60.4681 71.336 59.8334 70.5474 59.8334C69.7587 59.8334 69.1185 60.4681 69.1185 61.25V64.0834C69.1185 64.8653 69.7587 65.5 70.5474 65.5C71.336 65.5 71.9762 64.8653 71.9762 64.0834V61.25Z" fill="black"/>
<path d="M60.5452 103.75C60.5452 102.968 59.9051 102.333 59.1164 102.333C58.3277 102.333 57.6874 102.968 57.6874 103.75V106.583C57.6874 107.365 58.3275 108 59.1162 108C59.9049 108 60.545 107.365 60.545 106.583V103.75H60.5452Z" fill="black"/>
<path d="M47.6852 91C48.4739 91 49.1141 90.3653 49.1141 89.5834V82.5H63.4029V117.917C63.4029 118.699 64.0431 119.333 64.8318 119.333C65.6204 119.333 66.2606 118.699 66.2606 117.917V81.0834C66.2606 80.3014 65.6204 79.6667 64.8318 79.6667H47.6851C46.8964 79.6667 46.2562 80.3014 46.2562 81.0834V89.5834C46.2562 90.3653 46.8964 91 47.6852 91Z" fill="black"/>
<path d="M63.4028 69.75V72.5834C63.4028 73.3653 64.043 74 64.8317 74C65.6203 74 66.2605 73.3653 66.2605 72.5834V69.75C66.2605 68.968 65.6203 68.3334 64.8317 68.3334C64.043 68.3334 63.4028 68.968 63.4028 69.75Z" fill="black"/>
<path d="M71.9762 52.75C71.9762 51.9681 71.336 51.3334 70.5474 51.3334C69.7587 51.3334 69.1185 51.9681 69.1185 52.75V55.5834C69.1185 56.3653 69.7587 57 70.5474 57C71.336 57 71.9762 56.3653 71.9762 55.5834V52.75Z" fill="black"/>
<path d="M59.1162 110.833C58.3275 110.833 57.6874 111.468 57.6874 112.25V117.917C57.6874 118.699 58.3275 119.333 59.1162 119.333C59.9049 119.333 60.545 118.699 60.545 117.917V112.25C60.5452 111.468 59.9051 110.833 59.1162 110.833Z" fill="black"/>
<path d="M124.845 122.167H121.987V113.465C124.445 112.832 126.274 110.632 126.274 108C126.274 104.875 123.711 102.333 120.559 102.333C117.407 102.333 114.843 104.875 114.843 108C114.843 110.632 116.672 112.832 119.13 113.465V122.167H83.4074V116.357C86.6637 115.698 89.1229 112.838 89.1229 109.417C89.1229 105.511 85.9179 102.333 81.9784 102.333C78.039 102.333 74.8339 105.511 74.8339 109.417C74.8339 112.838 77.293 115.698 80.5494 116.357V122.167H49.114V107.857C52.3704 107.198 54.8295 104.338 54.8295 100.917C54.8295 97.011 51.6245 93.8333 47.685 93.8333C43.7456 93.8334 40.5406 97.011 40.5406 100.917C40.5406 104.338 42.9998 107.198 46.2562 107.857V122.167H41.9695C41.1808 122.167 40.5406 122.801 40.5406 123.583C40.5406 124.365 41.1808 125 41.9695 125H124.845C125.634 125 126.274 124.365 126.274 123.583C126.274 122.801 125.634 122.167 124.845 122.167ZM43.3985 100.917C43.3985 98.5735 45.3218 96.6666 47.6852 96.6666C50.0485 96.6666 51.9718 98.5735 51.9718 100.917C51.9718 103.26 50.0485 105.167 47.6852 105.167C45.3218 105.167 43.3985 103.26 43.3985 100.917ZM77.6919 109.417C77.6919 107.073 79.6152 105.167 81.9785 105.167C84.3419 105.167 86.2652 107.073 86.2652 109.417C86.2652 111.76 84.3419 113.667 81.9785 113.667C79.6152 113.667 77.6919 111.76 77.6919 109.417ZM117.701 108C117.701 106.437 118.982 105.167 120.559 105.167C122.135 105.167 123.416 106.437 123.416 108C123.416 109.563 122.135 110.833 120.559 110.833C118.982 110.833 117.701 109.563 117.701 108Z" fill="black"/>
<path d="M51.9718 112.25V117.917C51.9718 118.699 52.612 119.333 53.4006 119.333C54.1893 119.333 54.8295 118.699 54.8295 117.917V112.25C54.8295 111.468 54.1893 110.833 53.4006 110.833C52.612 110.833 51.9718 111.468 51.9718 112.25Z" fill="black"/>
<path d="M60.5452 86.75C60.5452 85.9681 59.905 85.3334 59.1163 85.3334C58.3277 85.3334 57.6875 85.9681 57.6875 86.75V89.5834C57.6875 90.3653 58.3277 91 59.1163 91C59.905 91 60.5452 90.3653 60.5452 89.5834V86.75Z" fill="black"/>
<path d="M60.5452 95.25C60.5452 94.4681 59.905 93.8334 59.1163 93.8334C58.3277 93.8334 57.6875 94.4681 57.6875 95.25V98.0834C57.6875 98.8653 58.3277 99.5 59.1163 99.5C59.905 99.5 60.5452 98.8653 60.5452 98.0834V95.25Z" fill="black"/>
<path d="M51.9718 86.75V89.5834C51.9718 90.3653 52.612 91 53.4006 91C54.1893 91 54.8295 90.3653 54.8295 89.5834V86.75C54.8295 85.9681 54.1893 85.3334 53.4006 85.3334C52.612 85.3334 51.9718 85.9681 51.9718 86.75Z" fill="black"/>
<path d="M71.9762 95.25C71.9762 94.4681 71.336 93.8334 70.5474 93.8334C69.7587 93.8334 69.1185 94.4681 69.1185 95.25V98.0834C69.1185 98.8653 69.7587 99.5 70.5474 99.5C71.336 99.5 71.9762 98.8653 71.9762 98.0834V95.25Z" fill="black"/>
<path d="M77.6919 78.25C77.6919 77.4681 77.0517 76.8334 76.2631 76.8334C75.4744 76.8334 74.8342 77.4681 74.8342 78.25V81.0834C74.8342 81.8653 75.4744 82.5 76.2631 82.5C77.0517 82.5 77.6919 81.8653 77.6919 81.0834V78.25Z" fill="black"/>
<path d="M77.6919 69.75C77.6919 68.968 77.0517 68.3334 76.2631 68.3334C75.4744 68.3334 74.8342 68.968 74.8342 69.75V72.5834C74.8342 73.3653 75.4744 74 76.2631 74C77.0517 74 77.6919 73.3653 77.6919 72.5834V69.75Z" fill="black"/>
<path d="M77.6919 86.75C77.6919 85.9681 77.0517 85.3334 76.2631 85.3334C75.4744 85.3334 74.8342 85.9681 74.8342 86.75V89.5834C74.8342 90.3653 75.4744 91 76.2631 91C77.0517 91 77.6919 90.3653 77.6919 89.5834V86.75Z" fill="black"/>
<path d="M76.2629 93.8334C75.4743 93.8334 74.8341 94.4681 74.8341 95.25V98.0834C74.8341 98.8653 75.4743 99.5 76.2629 99.5C77.0516 99.5 77.6918 98.8653 77.6918 98.0834V95.25C77.6919 94.4681 77.0518 93.8334 76.2629 93.8334Z" fill="black"/>
<path d="M77.6919 61.25C77.6919 60.4681 77.0517 59.8334 76.2631 59.8334C75.4744 59.8334 74.8342 60.4681 74.8342 61.25V64.0834C74.8342 64.8653 75.4744 65.5 76.2631 65.5C77.0517 65.5 77.6919 64.8653 77.6919 64.0834V61.25Z" fill="black"/>
<path d="M71.9762 103.75C71.9762 102.968 71.336 102.333 70.5474 102.333C69.7587 102.333 69.1185 102.968 69.1185 103.75V106.583C69.1185 107.365 69.7587 108 70.5474 108C71.336 108 71.9762 107.365 71.9762 106.583V103.75Z" fill="black"/>
<path d="M59.1162 76.8334C59.9048 76.8334 60.545 76.1987 60.545 75.4168V64.9588L65.4703 62.5179C65.9548 62.277 66.2605 61.7869 66.2605 61.25V49.3756L73.405 45.834L80.5495 49.3756V61.25C80.5495 62.0319 81.1897 62.6666 81.9784 62.6666C82.7671 62.6666 83.4074 62.0319 83.4074 61.25V48.5C83.4074 47.9631 83.1016 47.4729 82.6172 47.2321L74.834 43.3744V41.4166C74.834 40.6347 74.1939 40 73.4052 40C72.6165 40 71.9764 40.6347 71.9764 41.4166V43.3744L64.1932 47.232C63.7088 47.4729 63.403 47.9629 63.403 48.4998V60.3743L58.4777 62.8152C57.9933 63.0561 57.6875 63.5462 57.6875 64.0831V75.4164C57.6873 76.1987 58.3275 76.8334 59.1162 76.8334Z" fill="black"/>
<path d="M71.9762 86.75C71.9762 85.9681 71.336 85.3334 70.5474 85.3334C69.7587 85.3334 69.1185 85.9681 69.1185 86.75V89.5834C69.1185 90.3653 69.7587 91 70.5474 91C71.336 91 71.9762 90.3653 71.9762 89.5834V86.75Z" fill="black"/>
<path d="M70.5474 110.833C69.7587 110.833 69.1185 111.468 69.1185 112.25V117.917C69.1185 118.699 69.7587 119.333 70.5474 119.333C71.336 119.333 71.9762 118.699 71.9762 117.917V112.25C71.9762 111.468 71.336 110.833 70.5474 110.833Z" fill="black"/>
<path d="M77.6919 52.75C77.6919 51.9681 77.0517 51.3334 76.2631 51.3334C75.4744 51.3334 74.8342 51.9681 74.8342 52.75V55.5834C74.8342 56.3653 75.4744 57 76.2631 57C77.0517 57 77.6919 56.3653 77.6919 55.5834V52.75Z" fill="black"/>
<path d="M71.9762 78.25C71.9762 77.4681 71.336 76.8334 70.5474 76.8334C69.7587 76.8334 69.1185 77.4681 69.1185 78.25V81.0834C69.1185 81.8653 69.7587 82.5 70.5474 82.5C71.336 82.5 71.9762 81.8653 71.9762 81.0834V78.25Z" fill="black"/>
</g>
<path d="M26.9278 191V173.96H29.6158V181.088H31.6078L36.9598 173.96H40.0318L33.7678 182.216L40.4878 191H37.1998L31.6078 183.56H29.6158V191H26.9278ZM49.2941 191.12C48.0781 191.12 46.9661 190.88 45.9581 190.4C44.9661 189.92 44.1101 189.272 43.3901 188.456C42.6701 187.624 42.1101 186.696 41.7101 185.672C41.3261 184.632 41.1341 183.568 41.1341 182.48C41.1341 181.344 41.3421 180.264 41.7581 179.24C42.1741 178.2 42.7501 177.28 43.4861 176.48C44.2221 175.664 45.0861 175.024 46.0781 174.56C47.0861 174.08 48.1741 173.84 49.3421 173.84C50.5581 173.84 51.6621 174.088 52.6541 174.584C53.6621 175.08 54.5181 175.744 55.2221 176.576C55.9421 177.408 56.4941 178.336 56.8781 179.36C57.2781 180.384 57.4781 181.432 57.4781 182.504C57.4781 183.64 57.2701 184.728 56.8541 185.768C56.4541 186.792 55.8861 187.712 55.1501 188.528C54.4141 189.328 53.5421 189.96 52.5341 190.424C51.5421 190.888 50.4621 191.12 49.2941 191.12ZM43.8701 182.48C43.8701 183.552 44.0941 184.568 44.5421 185.528C44.9901 186.472 45.6141 187.24 46.4141 187.832C47.2301 188.408 48.1981 188.696 49.3181 188.696C50.1661 188.696 50.9261 188.52 51.5981 188.168C52.2701 187.816 52.8381 187.344 53.3021 186.752C53.7661 186.144 54.1181 185.472 54.3581 184.736C54.5981 184 54.7181 183.248 54.7181 182.48C54.7181 181.408 54.4941 180.4 54.0461 179.456C53.6141 178.512 52.9901 177.752 52.1741 177.176C51.3581 176.584 50.4061 176.288 49.3181 176.288C48.4541 176.288 47.6861 176.464 47.0141 176.816C46.3421 177.168 45.7741 177.64 45.3101 178.232C44.8461 178.824 44.4861 179.488 44.2301 180.224C43.9901 180.96 43.8701 181.712 43.8701 182.48ZM60.501 191V173.96H67.653C68.421 173.96 69.125 174.12 69.765 174.44C70.421 174.76 70.981 175.184 71.445 175.712C71.925 176.24 72.293 176.832 72.549 177.488C72.805 178.144 72.933 178.816 72.933 179.504C72.933 180.464 72.717 181.368 72.285 182.216C71.853 183.064 71.253 183.752 70.485 184.28C69.717 184.808 68.821 185.072 67.797 185.072H63.189V191H60.501ZM63.189 182.696H67.629C68.381 182.696 68.997 182.392 69.477 181.784C69.957 181.176 70.197 180.416 70.197 179.504C70.197 178.88 70.069 178.336 69.813 177.872C69.557 177.392 69.221 177.016 68.805 176.744C68.405 176.472 67.965 176.336 67.485 176.336H63.189V182.696ZM82.7741 191.12C81.5581 191.12 80.4461 190.88 79.4381 190.4C78.4461 189.92 77.5901 189.272 76.8701 188.456C76.1501 187.624 75.5901 186.696 75.1901 185.672C74.8061 184.632 74.6141 183.568 74.6141 182.48C74.6141 181.344 74.8221 180.264 75.2381 179.24C75.6541 178.2 76.2301 177.28 76.9661 176.48C77.7021 175.664 78.5661 175.024 79.5581 174.56C80.5661 174.08 81.6541 173.84 82.8221 173.84C84.0381 173.84 85.1421 174.088 86.1341 174.584C87.1421 175.08 87.9981 175.744 88.7021 176.576C89.4221 177.408 89.9741 178.336 90.3581 179.36C90.7581 180.384 90.9581 181.432 90.9581 182.504C90.9581 183.64 90.7501 184.728 90.3341 185.768C89.9341 186.792 89.3661 187.712 88.6301 188.528C87.8941 189.328 87.0221 189.96 86.0141 190.424C85.0221 190.888 83.9421 191.12 82.7741 191.12ZM77.3501 182.48C77.3501 183.552 77.5741 184.568 78.0221 185.528C78.4701 186.472 79.0941 187.24 79.8941 187.832C80.7101 188.408 81.6781 188.696 82.7981 188.696C83.6461 188.696 84.4061 188.52 85.0781 188.168C85.7501 187.816 86.3181 187.344 86.7821 186.752C87.2461 186.144 87.5981 185.472 87.8381 184.736C88.0781 184 88.1981 183.248 88.1981 182.48C88.1981 181.408 87.9741 180.4 87.5261 179.456C87.0941 178.512 86.4701 177.752 85.6541 177.176C84.8381 176.584 83.8861 176.288 82.7981 176.288C81.9341 176.288 81.1661 176.464 80.4941 176.816C79.8221 177.168 79.2541 177.64 78.7901 178.232C78.3261 178.824 77.9661 179.488 77.7101 180.224C77.4701 180.96 77.3501 181.712 77.3501 182.48ZM105.045 191V176.336H99.357L99.261 179.504C99.181 181.792 98.997 183.688 98.709 185.192C98.437 186.68 98.045 187.856 97.533 188.72C97.021 189.584 96.381 190.192 95.613 190.544C94.845 190.896 93.925 191.072 92.853 191.072V188.72C93.445 188.72 93.965 188.584 94.413 188.312C94.861 188.024 95.237 187.52 95.541 186.8C95.861 186.08 96.109 185.072 96.285 183.776C96.477 182.464 96.605 180.792 96.669 178.76L96.837 173.96H107.757V191H105.045ZM123.534 188.624V191H111.846V173.96H123.318V176.336H114.534V181.184H122.142V183.416H114.534V188.624H123.534ZM139.939 186.608C139.939 187.52 139.699 188.304 139.219 188.96C138.739 189.616 138.099 190.12 137.299 190.472C136.515 190.824 135.643 191 134.683 191H126.547V173.96H135.331C136.131 173.96 136.819 174.176 137.395 174.608C137.971 175.024 138.419 175.568 138.739 176.24C139.059 176.912 139.219 177.6 139.219 178.304C139.219 179.136 139.003 179.92 138.571 180.656C138.155 181.376 137.555 181.912 136.771 182.264C137.731 182.552 138.499 183.08 139.075 183.848C139.651 184.6 139.939 185.52 139.939 186.608ZM129.235 176.288V181.304H134.179C134.851 181.304 135.411 181.072 135.859 180.608C136.307 180.128 136.531 179.528 136.531 178.808C136.531 178.072 136.323 177.472 135.907 177.008C135.491 176.528 134.963 176.288 134.323 176.288H129.235ZM137.179 186.104C137.179 185.4 136.955 184.784 136.507 184.256C136.075 183.728 135.523 183.464 134.851 183.464H129.235V188.672H134.683C135.387 188.672 135.979 188.424 136.459 187.928C136.939 187.416 137.179 186.808 137.179 186.104Z" fill="black"/>
<defs>
<filter id="filter0_d" x="0.376709" y="0" width="166.061" height="165" filterUnits="userSpaceOnUse" color-interpolation-filters="sRGB">
<feFlood flood-opacity="0" result="BackgroundImageFix"/>
<feColorMatrix in="SourceAlpha" type="matrix" values="0 0 0 0 0 0 0 0 0 0 0 0 0 0 0 0 0 0 127 0"/>
<feMorphology radius="1" operator="dilate" in="SourceAlpha" result="effect1_dropShadow"/>
<feOffset/>
<feGaussianBlur stdDeviation="10"/>
<feColorMatrix type="matrix" values="0 0 0 0 0.630556 0 0 0 0 1 0 0 0 0 0.97601 0 0 0 1 0"/>
<feBlend mode="normal" in2="BackgroundImageFix" result="effect1_dropShadow"/>
<feBlend mode="normal" in="SourceGraphic" in2="effect1_dropShadow" result="shape"/>
</filter>
<clipPath id="clip0">
<rect width="85.7335" height="85" fill="white" transform="translate(40.5406 40)"/>
</clipPath>
</defs>
</svg>
