<svg width="167" height="202" viewBox="0 0 167 202" fill="none" xmlns="http://www.w3.org/2000/svg">
<g filter="url(#filter0_d)">
<ellipse cx="83.9692" cy="82.5" rx="62.0307" ry="61.5" fill="white"/>
</g>
<path d="M120.138 115.542C123.191 114.801 125.496 111.583 125.496 107.734C125.496 103.885 123.191 100.667 120.138 99.9263V57.2656H117.459V51.9531H112.1V46.6406H109.388L109.421 41.3361L106.742 41.3188L106.709 46.6406H104.063V51.9531H98.7046V57.2656H96.0254V68.7911C93.1212 69.5734 90.4018 70.8417 87.9879 72.5364V59.9219H93.3463V51.9531H86.6483V46.6406H83.9357L83.9692 41.3361L81.29 41.3188L81.2565 46.6406H78.6108V51.9531H71.9129V59.9219H77.2712V85.4471L71.9129 84.119V73.2031H74.5921V70.5469H66.5546V62.5781H63.8754V70.5469H61.1962V67.8906H58.517V70.5469H55.8379V65.2344H53.1587V70.5469H45.1212V73.2031H47.8004V114.41C46.1835 115.622 45.1212 117.527 45.1212 119.688C45.1212 120.136 45.1815 120.579 45.2712 121.016H42.442V123.672H125.496V121.016H120.138V115.542ZM79.9504 113.618C78.0361 112.796 75.7334 112.899 73.925 113.943C72.1634 111.721 69.4548 110.391 66.5546 110.391C64.5746 110.391 62.7287 111.008 61.1962 112.065V84.2013L79.9504 88.8498V113.618ZM80.9605 86.3609L81.1091 85.993C84.067 77.1769 92.1138 71.1206 101.384 70.5854V116.626C99.8928 115.92 98.2143 115.578 96.4795 115.746C94.9538 112.501 91.6718 110.391 87.9879 110.391C86.0361 110.391 84.1781 111.006 82.6296 112.077V86.7753L80.9605 86.3609ZM106.742 107.734V112.72C105.187 111.987 104.063 110.04 104.063 107.734C104.063 104.805 105.866 102.422 108.082 102.422C110.297 102.422 112.1 104.805 112.1 107.734C112.1 110.04 110.977 111.987 109.421 112.72V107.734H106.742ZM104.063 118.539V114.093C104.843 114.793 105.751 115.301 106.742 115.541V121.016H105.806C105.358 120.087 104.77 119.257 104.063 118.539ZM109.421 115.542C111.058 115.145 112.473 114.031 113.44 112.496C114.407 114.032 115.822 115.145 117.459 115.542V121.016H109.421V115.542ZM122.817 107.734C122.817 110.04 121.693 111.987 120.138 112.72V107.734H117.459V112.72C115.904 111.987 114.78 110.04 114.78 107.734C114.78 104.805 116.583 102.422 118.798 102.422C121.014 102.422 122.817 104.805 122.817 107.734ZM106.742 49.2969H109.421V51.9531H106.742V49.2969ZM101.384 54.6094H104.063H112.1H114.78V57.2656H101.384V54.6094ZM98.7046 59.9219H117.459V99.9263C115.822 100.323 114.407 101.438 113.44 102.973C112.217 101.031 110.273 99.7656 108.082 99.7656C106.573 99.7656 105.184 100.37 104.063 101.374V67.8906H102.723C101.361 67.8906 100.019 67.9982 98.7046 68.2054V59.9219ZM81.29 49.2969H83.9692V51.9531H81.29V49.2969ZM74.5921 54.6094H90.6671V57.2656H74.5921V54.6094ZM85.3087 59.9219V74.7159C83.1319 76.7373 81.3074 79.1425 79.9504 81.8559V59.9219H85.3087ZM50.4795 73.2031H69.2337V83.4549L58.517 80.7987V114.924C58.3523 115.2 58.1848 115.475 58.0468 115.77C57.7655 115.731 57.4789 115.71 57.1815 115.707C55.9249 114.048 53.9397 113.047 51.8191 113.047C51.361 113.047 50.9122 113.093 50.4795 113.181V73.2031ZM47.8004 119.688C47.8004 117.491 49.6034 115.703 51.8191 115.703C53.2672 115.703 54.6095 116.48 55.3221 117.731L55.7374 118.46L57.1775 118.359C57.5713 118.359 57.9866 118.435 58.4487 118.589L59.7495 119.022L60.1554 117.722C61.0274 114.926 63.5994 113.047 66.5546 113.047C68.9913 113.047 71.2391 114.363 72.4193 116.483L73.2565 117.986L74.513 116.804C76.0241 115.386 78.5157 115.386 80.0268 116.804L81.2833 117.986L82.1205 116.483C83.3034 114.363 85.5512 113.047 87.9879 113.047C90.8962 113.047 93.4548 114.89 94.355 117.634L94.7314 118.78L95.9196 118.52C98.568 117.937 101.165 119.019 102.693 121.016H48.0602C47.9075 120.588 47.8004 120.146 47.8004 119.688Z" fill="black"/>
<path d="M63.8754 75.8594H66.5545V78.5156H63.8754V75.8594Z" fill="black"/>
<path d="M53.1587 75.8594H55.8379V78.5156H53.1587V75.8594Z" fill="black"/>
<path d="M58.517 75.8594H61.1962V78.5156H58.517V75.8594Z" fill="black"/>
<path d="M53.1587 97.1094H55.8379V99.7656H53.1587V97.1094Z" fill="black"/>
<path d="M53.1587 91.7969H55.8379V94.4531H53.1587V91.7969Z" fill="black"/>
<path d="M53.1587 86.4844H55.8379V89.1406H53.1587V86.4844Z" fill="black"/>
<path d="M53.1587 102.422H55.8379V105.078H53.1587V102.422Z" fill="black"/>
<path d="M53.1587 81.1719H55.8379V83.8281H53.1587V81.1719Z" fill="black"/>
<path d="M53.1587 107.734H55.8379V110.391H53.1587V107.734Z" fill="black"/>
<path d="M112.1 62.5781H114.78V65.2344H112.1V62.5781Z" fill="black"/>
<path d="M106.742 62.5781H109.421V65.2344H106.742V62.5781Z" fill="black"/>
<path d="M101.384 62.5781H104.063V65.2344H101.384V62.5781Z" fill="black"/>
<path d="M63.8754 105.078H66.5545V107.734H63.8754V105.078Z" fill="black"/>
<path d="M63.8754 99.7656H66.5545V102.422H63.8754V99.7656Z" fill="black"/>
<path d="M63.8754 94.4531H66.5545V97.1094H63.8754V94.4531Z" fill="black"/>
<path d="M63.8754 89.1406H66.5545V91.7969H63.8754V89.1406Z" fill="black"/>
<path d="M69.2337 89.1406H71.9129V91.7969H69.2337V89.1406Z" fill="black"/>
<path d="M69.2337 94.4531H71.9129V97.1094H69.2337V94.4531Z" fill="black"/>
<path d="M69.2337 105.078H71.9129V107.734H69.2337V105.078Z" fill="black"/>
<path d="M69.2337 99.7656H71.9129V102.422H69.2337V99.7656Z" fill="black"/>
<path d="M74.592 105.078H77.2712V107.734H74.592V105.078Z" fill="black"/>
<path d="M74.592 94.4531H77.2712V97.1094H74.592V94.4531Z" fill="black"/>
<path d="M74.592 89.1406H77.2712V91.7969H74.592V89.1406Z" fill="black"/>
<path d="M74.592 99.7656H77.2712V102.422H74.592V99.7656Z" fill="black"/>
<path d="M90.6671 105.078H93.3463V107.734H90.6671V105.078Z" fill="black"/>
<path d="M85.3087 105.078H87.9879V107.734H85.3087V105.078Z" fill="black"/>
<path d="M96.0255 105.078H98.7046V107.734H96.0255V105.078Z" fill="black"/>
<path d="M90.6671 99.7656H93.3463V102.422H90.6671V99.7656Z" fill="black"/>
<path d="M85.3087 99.7656H87.9879V102.422H85.3087V99.7656Z" fill="black"/>
<path d="M96.0255 99.7656H98.7046V102.422H96.0255V99.7656Z" fill="black"/>
<path d="M96.0255 94.4531H98.7046V97.1094H96.0255V94.4531Z" fill="black"/>
<path d="M85.3087 94.4531H87.9879V97.1094H85.3087V94.4531Z" fill="black"/>
<path d="M90.6671 94.4531H93.3463V97.1094H90.6671V94.4531Z" fill="black"/>
<path d="M85.3087 89.1406H87.9879V91.7969H85.3087V89.1406Z" fill="black"/>
<path d="M96.0255 89.1406H98.7046V91.7969H96.0255V89.1406Z" fill="black"/>
<path d="M90.6671 89.1406H93.3463V91.7969H90.6671V89.1406Z" fill="black"/>
<path d="M96.0255 83.8281H98.7046V86.4844H96.0255V83.8281Z" fill="black"/>
<path d="M90.6671 83.8281H93.3463V86.4844H90.6671V83.8281Z" fill="black"/>
<path d="M85.3087 83.8281H87.9879V86.4844H85.3087V83.8281Z" fill="black"/>
<path d="M90.6671 78.5156H93.3463V81.1719H90.6671V78.5156Z" fill="black"/>
<path d="M96.0255 78.5156H98.7046V81.1719H96.0255V78.5156Z" fill="black"/>
<path d="M106.742 67.8906H109.421V70.5469H106.742V67.8906Z" fill="black"/>
<path d="M112.1 67.8906H114.78V70.5469H112.1V67.8906Z" fill="black"/>
<path d="M112.1 73.2031H114.78V75.8594H112.1V73.2031Z" fill="black"/>
<path d="M106.742 73.2031H109.421V75.8594H106.742V73.2031Z" fill="black"/>
<path d="M106.742 78.5156H109.421V81.1719H106.742V78.5156Z" fill="black"/>
<path d="M112.1 78.5156H114.78V81.1719H112.1V78.5156Z" fill="black"/>
<path d="M112.1 83.8281H114.78V86.4844H112.1V83.8281Z" fill="black"/>
<path d="M106.742 83.8281H109.421V86.4844H106.742V83.8281Z" fill="black"/>
<path d="M106.742 89.1406H109.421V91.7969H106.742V89.1406Z" fill="black"/>
<path d="M112.1 89.1406H114.78V91.7969H112.1V89.1406Z" fill="black"/>
<path d="M112.1 94.4531H114.78V97.1094H112.1V94.4531Z" fill="black"/>
<path d="M106.742 94.4531H109.421V97.1094H106.742V94.4531Z" fill="black"/>
<path d="M47.9023 191V178.856L42.8863 188.072H41.3023L36.2623 178.856V191H33.5743V173.96H36.4543L42.0943 184.376L47.7343 173.96H50.6143V191H47.9023ZM61.7772 191.12C60.5612 191.12 59.4492 190.88 58.4412 190.4C57.4492 189.92 56.5932 189.272 55.8732 188.456C55.1532 187.624 54.5932 186.696 54.1932 185.672C53.8092 184.632 53.6172 183.568 53.6172 182.48C53.6172 181.344 53.8252 180.264 54.2412 179.24C54.6572 178.2 55.2332 177.28 55.9692 176.48C56.7052 175.664 57.5692 175.024 58.5612 174.56C59.5692 174.08 60.6572 173.84 61.8252 173.84C63.0412 173.84 64.1452 174.088 65.1372 174.584C66.1452 175.08 67.0012 175.744 67.7052 176.576C68.4252 177.408 68.9772 178.336 69.3612 179.36C69.7612 180.384 69.9612 181.432 69.9612 182.504C69.9612 183.64 69.7532 184.728 69.3372 185.768C68.9372 186.792 68.3692 187.712 67.6332 188.528C66.8972 189.328 66.0252 189.96 65.0172 190.424C64.0252 190.888 62.9452 191.12 61.7772 191.12ZM56.3532 182.48C56.3532 183.552 56.5772 184.568 57.0252 185.528C57.4732 186.472 58.0972 187.24 58.8972 187.832C59.7132 188.408 60.6812 188.696 61.8012 188.696C62.6492 188.696 63.4092 188.52 64.0812 188.168C64.7532 187.816 65.3212 187.344 65.7852 186.752C66.2492 186.144 66.6012 185.472 66.8412 184.736C67.0812 184 67.2012 183.248 67.2012 182.48C67.2012 181.408 66.9772 180.4 66.5292 179.456C66.0972 178.512 65.4732 177.752 64.6572 177.176C63.8412 176.584 62.8892 176.288 61.8012 176.288C60.9372 176.288 60.1692 176.464 59.4972 176.816C58.8252 177.168 58.2572 177.64 57.7932 178.232C57.3292 178.824 56.9692 179.488 56.7132 180.224C56.4732 180.96 56.3532 181.712 56.3532 182.48ZM71.904 182.36C71.904 181.32 72.088 180.296 72.456 179.288C72.824 178.28 73.36 177.368 74.064 176.552C74.784 175.736 75.648 175.088 76.656 174.608C77.68 174.112 78.848 173.864 80.16 173.864C81.696 173.864 83.024 174.208 84.144 174.896C85.264 175.584 86.096 176.48 86.64 177.584L84.528 179C84.208 178.312 83.8 177.776 83.304 177.392C82.824 176.992 82.296 176.712 81.72 176.552C81.16 176.376 80.608 176.288 80.064 176.288C79.168 176.288 78.384 176.472 77.712 176.84C77.04 177.192 76.472 177.664 76.008 178.256C75.56 178.848 75.216 179.512 74.976 180.248C74.752 180.984 74.64 181.72 74.64 182.456C74.64 183.56 74.872 184.592 75.336 185.552C75.816 186.496 76.464 187.264 77.28 187.856C78.112 188.432 79.064 188.72 80.136 188.72C80.68 188.72 81.248 188.624 81.84 188.432C82.432 188.24 82.976 187.944 83.472 187.544C83.968 187.128 84.368 186.584 84.672 185.912L86.904 187.184C86.552 188.032 86 188.752 85.248 189.344C84.512 189.936 83.68 190.384 82.752 190.688C81.84 190.992 80.936 191.144 80.04 191.144C78.84 191.144 77.744 190.896 76.752 190.4C75.76 189.888 74.904 189.216 74.184 188.384C73.464 187.536 72.904 186.592 72.504 185.552C72.104 184.496 71.904 183.432 71.904 182.36ZM89.6543 191V173.96H92.3423V181.088H94.3343L99.6863 173.96H102.758L96.4943 182.216L103.214 191H99.9263L94.3343 183.56H92.3423V191H89.6543ZM119.317 186.608C119.317 187.52 119.077 188.304 118.597 188.96C118.117 189.616 117.477 190.12 116.677 190.472C115.893 190.824 115.021 191 114.061 191H105.925V173.96H114.709C115.509 173.96 116.197 174.176 116.773 174.608C117.349 175.024 117.797 175.568 118.117 176.24C118.437 176.912 118.597 177.6 118.597 178.304C118.597 179.136 118.381 179.92 117.949 180.656C117.533 181.376 116.933 181.912 116.149 182.264C117.109 182.552 117.877 183.08 118.453 183.848C119.029 184.6 119.317 185.52 119.317 186.608ZM108.613 176.288V181.304H113.557C114.229 181.304 114.789 181.072 115.237 180.608C115.685 180.128 115.909 179.528 115.909 178.808C115.909 178.072 115.701 177.472 115.285 177.008C114.869 176.528 114.341 176.288 113.701 176.288H108.613ZM116.557 186.104C116.557 185.4 116.333 184.784 115.885 184.256C115.453 183.728 114.901 183.464 114.229 183.464H108.613V188.672H114.061C114.765 188.672 115.357 188.424 115.837 187.928C116.317 187.416 116.557 186.808 116.557 186.104ZM126.929 173.96H129.473L136.097 191H133.265L131.465 186.368H124.889L123.113 191H120.257L126.929 173.96ZM130.937 184.376L128.201 176.912L125.369 184.376H130.937Z" fill="black"/>
<defs>
<filter id="filter0_d" x="0.938477" y="0" width="166.061" height="165" filterUnits="userSpaceOnUse" color-interpolation-filters="sRGB">
<feFlood flood-opacity="0" result="BackgroundImageFix"/>
<feColorMatrix in="SourceAlpha" type="matrix" values="0 0 0 0 0 0 0 0 0 0 0 0 0 0 0 0 0 0 127 0"/>
<feMorphology radius="1" operator="dilate" in="SourceAlpha" result="effect1_dropShadow"/>
<feOffset/>
<feGaussianBlur stdDeviation="10"/>
<feColorMatrix type="matrix" values="0 0 0 0 1 0 0 0 0 0.971518 0 0 0 0 0.747222 0 0 0 1 0"/>
<feBlend mode="normal" in2="BackgroundImageFix" result="effect1_dropShadow"/>
<feBlend mode="normal" in="SourceGraphic" in2="effect1_dropShadow" result="shape"/>
</filter>
</defs>
</svg>
