<svg width="167" height="202" viewBox="0 0 167 202" fill="none" xmlns="http://www.w3.org/2000/svg">
<g filter="url(#filter0_d)">
<ellipse cx="83.8456" cy="82.5" rx="62.0307" ry="61.5" fill="white"/>
</g>
<path d="M95.9019 107.734H98.581V118.359H95.9019V107.734Z" fill="black"/>
<path d="M101.26 107.734H103.939V118.359H101.26V107.734Z" fill="black"/>
<path d="M114.656 87.7992V59.9219H111.977V46.4002L109.298 46.8425V43.9844H106.619V47.2861L103.939 47.7284V41.3281H101.26V48.172L98.5811 48.6142V43.9844H95.9019V49.0565L93.2227 49.4987V59.9219H90.5436V73.2031H79.8269V54.6094H74.4685V46.6406H71.7894V41.3281H58.3935V46.6406H55.7143V54.6094H50.356V79.4254C47.5804 80.7389 45.5589 83.3593 45.1048 86.4844H42.3185V123.672H125.373V86.2812L114.656 87.7992ZM95.9019 51.7499L109.298 49.5359V59.9219H95.9019V51.7499ZM93.2227 62.5781H111.977V88.1791L103.939 89.3173V96.2248L99.9207 90.9123L95.9019 96.2248V73.2031H93.2227V62.5781ZM93.2227 78.5156H74.4685V75.8594H93.2227V78.5156ZM93.2227 105.078H106.619V121.016H93.2227V105.078ZM94.5623 102.422L99.9207 95.339L105.279 102.422H94.5623ZM61.0727 43.9844H69.1102V46.6406H61.0727V43.9844ZM58.3935 49.2969H71.7894V54.6094H58.3935V49.2969ZM53.0352 57.2656H77.1477V73.2031H71.7894V79.4254C70.569 78.849 69.2093 78.5156 67.7706 78.5156H54.3747C53.9193 78.5156 53.4745 78.5595 53.0352 78.6219V57.2656ZM54.3747 81.1719H67.7706C71.0044 81.1719 73.7103 83.4576 74.3332 86.4844H47.8121C48.435 83.4576 51.141 81.1719 54.3747 81.1719ZM77.1477 89.1406V91.7969H44.9977V89.1406H77.1477ZM71.7894 113.047H66.431V107.734H71.7894V113.047ZM63.7518 113.047H58.3935V107.734H63.7518V113.047ZM63.7518 115.703V121.016H58.3935V115.703H63.7518ZM66.431 115.703H71.7894V121.016H66.431V115.703ZM71.7894 105.078H66.431V99.7656H71.7894V105.078ZM63.7518 105.078H58.3935V99.7656H63.7518V105.078ZM55.7143 105.078H50.356V99.7656H55.7143V105.078ZM50.356 107.734H55.7143V113.047H50.356V107.734ZM50.356 115.703H55.7143V121.016H50.356V115.703ZM74.4685 121.016V97.1094H47.6768V121.016H44.9977V94.4531H77.1477V121.016H74.4685ZM77.0405 86.4844C76.7512 84.4895 75.8269 82.6952 74.4685 81.3193V81.1719H93.2227V99.7656L90.5436 103.308V121.016H79.8269V86.4844H77.0405ZM122.694 121.016H109.298V103.308L106.619 99.7656V91.6202L122.694 89.3438V121.016Z" fill="black"/>
<path d="M82.5061 83.8281H85.1853V86.4844H82.5061V83.8281Z" fill="black"/>
<path d="M82.5061 115.703H85.1853V118.359H82.5061V115.703Z" fill="black"/>
<path d="M82.5061 89.1406H85.1853V91.7969H82.5061V89.1406Z" fill="black"/>
<path d="M82.5061 110.391H85.1853V113.047H82.5061V110.391Z" fill="black"/>
<path d="M82.5061 99.7656H85.1853V102.422H82.5061V99.7656Z" fill="black"/>
<path d="M82.5061 94.4531H85.1853V97.1094H82.5061V94.4531Z" fill="black"/>
<path d="M82.5061 105.078H85.1853V107.734H82.5061V105.078Z" fill="black"/>
<path d="M87.8644 94.4531H90.5435V97.1094H87.8644V94.4531Z" fill="black"/>
<path d="M87.8644 89.1406H90.5435V91.7969H87.8644V89.1406Z" fill="black"/>
<path d="M87.8644 83.8281H90.5435V86.4844H87.8644V83.8281Z" fill="black"/>
<path d="M117.335 115.703H120.014V118.359H117.335V115.703Z" fill="black"/>
<path d="M117.335 105.078H120.014V107.734H117.335V105.078Z" fill="black"/>
<path d="M117.335 110.391H120.014V113.047H117.335V110.391Z" fill="black"/>
<path d="M117.335 99.7656H120.014V102.422H117.335V99.7656Z" fill="black"/>
<path d="M117.335 94.4531H120.014V97.1094H117.335V94.4531Z" fill="black"/>
<path d="M111.977 110.391H114.656V113.047H111.977V110.391Z" fill="black"/>
<path d="M111.977 94.4531H114.656V97.1094H111.977V94.4531Z" fill="black"/>
<path d="M111.977 105.078H114.656V107.734H111.977V105.078Z" fill="black"/>
<path d="M111.977 115.703H114.656V118.359H111.977V115.703Z" fill="black"/>
<path d="M111.977 99.7656H114.656V102.422H111.977V99.7656Z" fill="black"/>
<path d="M71.7893 59.9219H74.4685V62.5781H71.7893V59.9219Z" fill="black"/>
<path d="M66.431 59.9219H69.1102V62.5781H66.431V59.9219Z" fill="black"/>
<path d="M55.7144 59.9219H58.3935V62.5781H55.7144V59.9219Z" fill="black"/>
<path d="M61.0726 59.9219H63.7518V62.5781H61.0726V59.9219Z" fill="black"/>
<path d="M61.0726 65.2344H63.7518V67.8906H61.0726V65.2344Z" fill="black"/>
<path d="M71.7893 65.2344H74.4685V67.8906H71.7893V65.2344Z" fill="black"/>
<path d="M55.7144 65.2344H58.3935V67.8906H55.7144V65.2344Z" fill="black"/>
<path d="M66.431 65.2344H69.1102V67.8906H66.431V65.2344Z" fill="black"/>
<path d="M55.7144 70.5469H58.3935V73.2031H55.7144V70.5469Z" fill="black"/>
<path d="M61.0726 70.5469H63.7518V73.2031H61.0726V70.5469Z" fill="black"/>
<path d="M66.431 70.5469H69.1102V73.2031H66.431V70.5469Z" fill="black"/>
<path d="M106.619 65.2344H109.298V67.8906H106.619V65.2344Z" fill="black"/>
<path d="M101.26 65.2344H103.939V67.8906H101.26V65.2344Z" fill="black"/>
<path d="M95.9019 65.2344H98.581V67.8906H95.9019V65.2344Z" fill="black"/>
<path d="M106.619 70.5469H109.298V73.2031H106.619V70.5469Z" fill="black"/>
<path d="M95.9019 70.5469H98.581V73.2031H95.9019V70.5469Z" fill="black"/>
<path d="M101.26 70.5469H103.939V73.2031H101.26V70.5469Z" fill="black"/>
<path d="M101.26 86.4844H103.939V89.1406H101.26V86.4844Z" fill="black"/>
<path d="M101.26 81.1719H103.939V83.8281H101.26V81.1719Z" fill="black"/>
<path d="M101.26 75.8594H103.939V78.5156H101.26V75.8594Z" fill="black"/>
<path d="M106.619 81.1719H109.298V83.8281H106.619V81.1719Z" fill="black"/>
<path d="M106.619 75.8594H109.298V78.5156H106.619V75.8594Z" fill="black"/>
<path d="M56.7904 191.12C55.5744 191.12 54.4624 190.88 53.4544 190.4C52.4624 189.92 51.6064 189.272 50.8864 188.456C50.1664 187.624 49.6064 186.696 49.2064 185.672C48.8224 184.632 48.6304 183.568 48.6304 182.48C48.6304 181.344 48.8384 180.264 49.2544 179.24C49.6704 178.2 50.2464 177.28 50.9824 176.48C51.7184 175.664 52.5824 175.024 53.5744 174.56C54.5824 174.08 55.6704 173.84 56.8384 173.84C58.0544 173.84 59.1584 174.088 60.1504 174.584C61.1584 175.08 62.0144 175.744 62.7184 176.576C63.4384 177.408 63.9904 178.336 64.3744 179.36C64.7744 180.384 64.9744 181.432 64.9744 182.504C64.9744 183.64 64.7664 184.728 64.3504 185.768C63.9504 186.792 63.3824 187.712 62.6464 188.528C61.9104 189.328 61.0384 189.96 60.0304 190.424C59.0384 190.888 57.9584 191.12 56.7904 191.12ZM51.3664 182.48C51.3664 183.552 51.5904 184.568 52.0384 185.528C52.4864 186.472 53.1104 187.24 53.9104 187.832C54.7264 188.408 55.6944 188.696 56.8144 188.696C57.6624 188.696 58.4224 188.52 59.0944 188.168C59.7664 187.816 60.3344 187.344 60.7984 186.752C61.2624 186.144 61.6144 185.472 61.8544 184.736C62.0944 184 62.2144 183.248 62.2144 182.48C62.2144 181.408 61.9904 180.4 61.5424 179.456C61.1104 178.512 60.4864 177.752 59.6704 177.176C58.8544 176.584 57.9024 176.288 56.8144 176.288C55.9504 176.288 55.1824 176.464 54.5104 176.816C53.8384 177.168 53.2704 177.64 52.8064 178.232C52.3424 178.824 51.9824 179.488 51.7264 180.224C51.4864 180.96 51.3664 181.712 51.3664 182.48ZM82.3252 191V178.856L77.3092 188.072H75.7252L70.6852 178.856V191H67.9972V173.96H70.8772L76.5172 184.376L82.1572 173.96H85.0372V191H82.3252ZM88.0401 182.36C88.0401 181.32 88.2241 180.296 88.5921 179.288C88.9601 178.28 89.4961 177.368 90.2001 176.552C90.9201 175.736 91.7841 175.088 92.7921 174.608C93.8161 174.112 94.9841 173.864 96.2961 173.864C97.8321 173.864 99.1601 174.208 100.28 174.896C101.4 175.584 102.232 176.48 102.776 177.584L100.664 179C100.344 178.312 99.9361 177.776 99.4401 177.392C98.9601 176.992 98.4321 176.712 97.8561 176.552C97.2961 176.376 96.7441 176.288 96.2001 176.288C95.3041 176.288 94.5201 176.472 93.8481 176.84C93.1761 177.192 92.6081 177.664 92.1441 178.256C91.6961 178.848 91.3521 179.512 91.1121 180.248C90.8881 180.984 90.7761 181.72 90.7761 182.456C90.7761 183.56 91.0081 184.592 91.4721 185.552C91.9521 186.496 92.6001 187.264 93.4161 187.856C94.2481 188.432 95.2001 188.72 96.2721 188.72C96.8161 188.72 97.3841 188.624 97.9761 188.432C98.5681 188.24 99.1121 187.944 99.6081 187.544C100.104 187.128 100.504 186.584 100.808 185.912L103.04 187.184C102.688 188.032 102.136 188.752 101.384 189.344C100.648 189.936 99.8161 190.384 98.8881 190.688C97.9761 190.992 97.0721 191.144 96.1761 191.144C94.9761 191.144 93.8801 190.896 92.8881 190.4C91.8961 189.888 91.0401 189.216 90.3201 188.384C89.6001 187.536 89.0401 186.592 88.6401 185.552C88.2401 184.496 88.0401 183.432 88.0401 182.36ZM105.79 191V173.96H108.478V181.088H110.47L115.822 173.96H118.894L112.63 182.216L119.35 191H116.062L110.47 183.56H108.478V191H105.79Z" fill="black"/>
<defs>
<filter id="filter0_d" x="0.814941" y="0" width="166.061" height="165" filterUnits="userSpaceOnUse" color-interpolation-filters="sRGB">
<feFlood flood-opacity="0" result="BackgroundImageFix"/>
<feColorMatrix in="SourceAlpha" type="matrix" values="0 0 0 0 0 0 0 0 0 0 0 0 0 0 0 0 0 0 127 0"/>
<feMorphology radius="1" operator="dilate" in="SourceAlpha" result="effect1_dropShadow"/>
<feOffset/>
<feGaussianBlur stdDeviation="10"/>
<feColorMatrix type="matrix" values="0 0 0 0 0.584314 0 0 0 0 0.643137 0 0 0 0 0.788235 0 0 0 1 0"/>
<feBlend mode="normal" in2="BackgroundImageFix" result="effect1_dropShadow"/>
<feBlend mode="normal" in="SourceGraphic" in2="effect1_dropShadow" result="shape"/>
</filter>
</defs>
</svg>
