<svg id="Capa_1" enable-background="new 0 0 512 512" height="512" viewBox="0 0 512 512" width="512" xmlns="http://www.w3.org/2000/svg"><g id="XMLID_406_"><g id="XMLID_173_"><path id="XMLID_1060_" d="m255.869 290.333c38.598 0 70-31.402 70-70s-31.402-70-70-70-70 31.402-70 70 31.402 70 70 70zm0-120c27.57 0 50 22.43 50 50s-22.43 50-50 50-50-22.43-50-50 22.429-50 50-50z"/><path id="XMLID_1061_" d="m247.119 239.083c2.559 0 5.119-.977 7.071-2.929l8.75-8.75c1.875-1.875 2.929-4.419 2.929-7.071v-20.5c0-5.523-4.477-10-10-10s-10 4.477-10 10v16.358l-5.821 5.821c-3.905 3.905-3.905 10.237 0 14.143 1.952 1.952 4.512 2.928 7.071 2.928z"/><path id="XMLID_1091_" d="m501.869 246.127h-104v-89.628c0-3.644-1.982-7-5.174-8.758l-126.695-69.816v-5.925h62.202c3.589 0 6.903-1.923 8.683-5.04s1.754-6.948-.069-10.04l-12.338-20.92 12.338-20.92c1.823-3.092 1.85-6.923.069-10.04-1.78-3.117-5.094-5.04-8.683-5.04h-72.202c-5.523 0-10 4.477-10 10v67.919l-126.95 69.817c-3.196 1.757-5.181 5.115-5.181 8.762v89.628h-103.738c-5.523 0-10 4.477-10 10v245.874c0 5.523 4.477 10 10 10h491.737c5.523 0 10-4.477 10-10v-245.873c.001-5.523-4.476-10-9.999-10zm-235.869-226.127h44.695l-6.44 10.92c-1.848 3.135-1.848 7.025 0 10.16l6.44 10.92h-44.695zm-245.869 246.127h93.737v67.936c0 5.523 4.477 10 10 10s10-4.477 10-10v-171.651l122.126-67.165 121.874 67.159v329.594h-48v-134c0-5.523-4.477-10-10-10h-128c-5.523 0-10 4.477-10 10v134h-48v-67.937c0-5.523-4.477-10-10-10s-10 4.477-10 10v67.937h-93.737zm289.738 225.873h-108v-124h108zm182 0h-94v-225.873h94z"/><path id="XMLID_1099_" d="m123.87 389.06c2.63 0 5.21-1.06 7.07-2.93 1.86-1.86 2.93-4.43 2.93-7.07 0-2.63-1.07-5.21-2.93-7.07s-4.44-2.93-7.07-2.93-5.21 1.07-7.07 2.93-2.93 4.44-2.93 7.07c0 2.64 1.07 5.21 2.93 7.07 1.86 1.87 4.44 2.93 7.07 2.93z"/></g></g></svg>