<svg width="167" height="202" viewBox="0 0 167 202" fill="none" xmlns="http://www.w3.org/2000/svg">
<g filter="url(#filter0_d)">
<ellipse cx="83.7221" cy="82.5" rx="62.0307" ry="61.5" fill="white"/>
</g>
<g clip-path="url(#clip0)">
<path d="M83.7001 88.1998C90.1633 88.1998 95.4215 82.9866 95.4215 76.5787C95.4215 70.1709 90.1633 64.9576 83.7001 64.9576C77.237 64.9576 71.9788 70.1709 71.9788 76.5787C71.9788 82.9866 77.237 88.1998 83.7001 88.1998ZM83.7001 68.278C88.3167 68.278 92.0725 72.0017 92.0725 76.5787C92.0725 81.1558 88.3167 84.8795 83.7001 84.8795C79.0836 84.8795 75.3277 81.1558 75.3277 76.5787C75.3277 72.0017 79.0834 68.278 83.7001 68.278Z" fill="black"/>
<path d="M82.235 79.6915C82.6635 79.6915 83.0922 79.5293 83.419 79.2053L84.8842 77.7526C85.1981 77.4414 85.3746 77.019 85.3746 76.5787V73.1754C85.3746 72.2585 84.625 71.5153 83.7002 71.5153C82.7753 71.5153 82.0257 72.2585 82.0257 73.1754V75.8911L81.051 76.8575C80.3971 77.5058 80.3971 78.557 81.051 79.2054C81.3778 79.5295 81.8065 79.6915 82.235 79.6915Z" fill="black"/>
<path d="M124.893 80.8609H107.479V65.9813C107.479 65.3763 107.147 64.8192 106.612 64.5273L85.3974 52.9368V51.9531H95.8131C96.414 51.9531 96.9689 51.6339 97.267 51.1164C97.5651 50.5989 97.5607 49.9629 97.2555 49.4496L95.1895 45.9766L97.2555 42.5035C97.5607 41.9902 97.5652 41.3542 97.267 40.8367C96.9689 40.3192 96.414 40 95.8131 40H83.723C82.7981 40 82.0485 40.7433 82.0485 41.6602V52.9358L60.7909 64.5265C60.2558 64.8182 59.9234 65.3757 59.9234 65.9811V80.8608H42.5527C41.6278 80.8608 40.8782 81.604 40.8782 82.5209V123.34C40.8782 124.257 41.6278 125 42.5527 125H124.893C125.818 125 126.568 124.257 126.568 123.34V82.5211C126.568 81.6042 125.818 80.8609 124.893 80.8609ZM85.3974 43.3203H92.8815L91.8032 45.1332C91.4937 45.6537 91.4937 46.2995 91.8032 46.8199L92.8815 48.6328H85.3974V43.3203ZM44.2271 84.1812H59.9232V95.4597C59.9232 96.3766 60.6729 97.1198 61.5977 97.1198C62.5225 97.1198 63.2722 96.3766 63.2722 95.4597V66.9629L83.722 55.8125L104.13 66.9619V121.68H96.092V99.4336C96.092 98.5167 95.3424 97.7734 94.4175 97.7734H72.9842C72.0594 97.7734 71.3097 98.5167 71.3097 99.4336V121.68H63.2722V110.401C63.2722 109.484 62.5225 108.741 61.5977 108.741C60.6729 108.741 59.9232 109.484 59.9232 110.401V121.68H44.2271V84.1812ZM92.7432 121.68H74.6588V101.094H92.7432V121.68ZM123.219 121.68H107.479V84.1812H123.219V121.68Z" fill="black"/>
<path d="M61.5972 104.59C62.0376 104.59 62.4696 104.414 62.7811 104.104C63.0925 103.795 63.2717 103.368 63.2717 102.93C63.2717 102.493 63.0925 102.065 62.7811 101.756C62.4696 101.447 62.0376 101.27 61.5972 101.27C61.1568 101.27 60.7248 101.447 60.4134 101.756C60.1019 102.065 59.9227 102.493 59.9227 102.93C59.9227 103.368 60.1019 103.795 60.4134 104.104C60.7248 104.414 61.1568 104.59 61.5972 104.59Z" fill="black"/>
</g>
<path d="M33.4904 191.12C32.2744 191.12 31.1624 190.88 30.1544 190.4C29.1624 189.92 28.3064 189.272 27.5864 188.456C26.8664 187.624 26.3064 186.696 25.9064 185.672C25.5224 184.632 25.3304 183.568 25.3304 182.48C25.3304 181.344 25.5384 180.264 25.9544 179.24C26.3704 178.2 26.9464 177.28 27.6824 176.48C28.4184 175.664 29.2824 175.024 30.2744 174.56C31.2824 174.08 32.3704 173.84 33.5384 173.84C34.7544 173.84 35.8584 174.088 36.8504 174.584C37.8584 175.08 38.7144 175.744 39.4184 176.576C40.1384 177.408 40.6904 178.336 41.0744 179.36C41.4744 180.384 41.6744 181.432 41.6744 182.504C41.6744 183.64 41.4664 184.728 41.0504 185.768C40.6504 186.792 40.0824 187.712 39.3464 188.528C38.6104 189.328 37.7384 189.96 36.7304 190.424C35.7384 190.888 34.6584 191.12 33.4904 191.12ZM28.0664 182.48C28.0664 183.552 28.2904 184.568 28.7384 185.528C29.1864 186.472 29.8104 187.24 30.6104 187.832C31.4264 188.408 32.3944 188.696 33.5144 188.696C34.3624 188.696 35.1224 188.52 35.7944 188.168C36.4664 187.816 37.0344 187.344 37.4984 186.752C37.9624 186.144 38.3144 185.472 38.5544 184.736C38.7944 184 38.9144 183.248 38.9144 182.48C38.9144 181.408 38.6904 180.4 38.2424 179.456C37.8104 178.512 37.1864 177.752 36.3704 177.176C35.5544 176.584 34.6024 176.288 33.5144 176.288C32.6504 176.288 31.8824 176.464 31.2104 176.816C30.5384 177.168 29.9704 177.64 29.5064 178.232C29.0424 178.824 28.6824 179.488 28.4264 180.224C28.1864 180.96 28.0664 181.712 28.0664 182.48ZM44.6973 191V173.96H51.8493C52.6173 173.96 53.3213 174.12 53.9613 174.44C54.6173 174.76 55.1773 175.184 55.6413 175.712C56.1213 176.24 56.4893 176.832 56.7453 177.488C57.0013 178.144 57.1293 178.816 57.1293 179.504C57.1293 180.464 56.9133 181.368 56.4813 182.216C56.0493 183.064 55.4493 183.752 54.6813 184.28C53.9133 184.808 53.0173 185.072 51.9933 185.072H47.3853V191H44.6973ZM47.3853 182.696H51.8253C52.5773 182.696 53.1933 182.392 53.6733 181.784C54.1533 181.176 54.3933 180.416 54.3933 179.504C54.3933 178.88 54.2653 178.336 54.0093 177.872C53.7533 177.392 53.4173 177.016 53.0013 176.744C52.6013 176.472 52.1613 176.336 51.6813 176.336H47.3853V182.696ZM70.9544 191V176.336H65.2664L65.1704 179.504C65.0904 181.792 64.9064 183.688 64.6184 185.192C64.3464 186.68 63.9544 187.856 63.4424 188.72C62.9304 189.584 62.2904 190.192 61.5224 190.544C60.7544 190.896 59.8344 191.072 58.7624 191.072V188.72C59.3544 188.72 59.8744 188.584 60.3224 188.312C60.7704 188.024 61.1464 187.52 61.4504 186.8C61.7704 186.08 62.0184 185.072 62.1944 183.776C62.3864 182.464 62.5144 180.792 62.5784 178.76L62.7464 173.96H73.6664V191H70.9544ZM89.4434 188.624V191H77.7554V173.96H89.2274V176.336H80.4434V181.184H88.0514V183.416H80.4434V188.624H89.4434ZM106.448 173.96V191H103.736V183.488H95.1443V191H92.4563V173.96H95.1443V181.088H103.736V173.96H106.448ZM117.612 191.12C116.396 191.12 115.284 190.88 114.276 190.4C113.284 189.92 112.428 189.272 111.708 188.456C110.988 187.624 110.428 186.696 110.028 185.672C109.644 184.632 109.452 183.568 109.452 182.48C109.452 181.344 109.66 180.264 110.076 179.24C110.492 178.2 111.068 177.28 111.804 176.48C112.54 175.664 113.404 175.024 114.396 174.56C115.404 174.08 116.492 173.84 117.66 173.84C118.876 173.84 119.98 174.088 120.972 174.584C121.98 175.08 122.836 175.744 123.54 176.576C124.26 177.408 124.812 178.336 125.196 179.36C125.596 180.384 125.796 181.432 125.796 182.504C125.796 183.64 125.588 184.728 125.172 185.768C124.772 186.792 124.204 187.712 123.468 188.528C122.732 189.328 121.86 189.96 120.852 190.424C119.86 190.888 118.78 191.12 117.612 191.12ZM112.188 182.48C112.188 183.552 112.412 184.568 112.86 185.528C113.308 186.472 113.932 187.24 114.732 187.832C115.548 188.408 116.516 188.696 117.636 188.696C118.484 188.696 119.244 188.52 119.916 188.168C120.588 187.816 121.156 187.344 121.62 186.752C122.084 186.144 122.436 185.472 122.676 184.736C122.916 184 123.036 183.248 123.036 182.48C123.036 181.408 122.812 180.4 122.364 179.456C121.932 178.512 121.308 177.752 120.492 177.176C119.676 176.584 118.724 176.288 117.636 176.288C116.772 176.288 116.004 176.464 115.332 176.816C114.66 177.168 114.092 177.64 113.628 178.232C113.164 178.824 112.804 179.488 112.548 180.224C112.308 180.96 112.188 181.712 112.188 182.48ZM128.843 191V173.96H131.531V181.088H133.523L138.875 173.96H141.947L135.683 182.216L142.403 191H139.115L133.523 183.56H131.531V191H128.843Z" fill="black"/>
<defs>
<filter id="filter0_d" x="0.691406" y="0" width="166.061" height="165" filterUnits="userSpaceOnUse" color-interpolation-filters="sRGB">
<feFlood flood-opacity="0" result="BackgroundImageFix"/>
<feColorMatrix in="SourceAlpha" type="matrix" values="0 0 0 0 0 0 0 0 0 0 0 0 0 0 0 0 0 0 127 0"/>
<feMorphology radius="1" operator="dilate" in="SourceAlpha" result="effect1_dropShadow"/>
<feOffset/>
<feGaussianBlur stdDeviation="10"/>
<feColorMatrix type="matrix" values="0 0 0 0 1 0 0 0 0 0.971518 0 0 0 0 0.747222 0 0 0 1 0"/>
<feBlend mode="normal" in2="BackgroundImageFix" result="effect1_dropShadow"/>
<feBlend mode="normal" in="SourceGraphic" in2="effect1_dropShadow" result="shape"/>
</filter>
<clipPath id="clip0">
<rect width="85.7335" height="85" fill="white" transform="translate(40.8553 40)"/>
</clipPath>
</defs>
</svg>
