<svg width="167" height="202" viewBox="0 0 167 202" fill="none" xmlns="http://www.w3.org/2000/svg">
<g filter="url(#filter0_d)">
<ellipse cx="83.2839" cy="82.5" rx="62.0307" ry="61.5" fill="white"/>
</g>
<g clip-path="url(#clip0)">
<path d="M124.862 104.09H116.374V93.7748C116.374 93.0777 115.797 92.5125 115.086 92.5125C114.374 92.5125 113.798 93.0777 113.798 93.7748V122.343H96.196H91.6883V116.714V112.927V105.668V101.881V94.6227V90.8357V84.8397H113.798V87.8833C113.798 88.5804 114.374 89.1457 115.086 89.1457C115.797 89.1457 116.374 88.5804 116.374 87.8833V83.5775C116.374 82.8804 115.797 82.3151 115.086 82.3151H97.4843V41.3946C97.4843 40.6975 96.9074 40.1322 96.196 40.1322H69.4022C68.6908 40.1322 68.114 40.6975 68.114 41.3946V60.2792H51.4498C50.7385 60.2792 50.1616 60.8445 50.1616 61.5416V92.5789H40.6967C39.9853 92.5789 39.4084 93.1441 39.4084 93.8412V123.606C39.4084 124.303 39.9853 124.868 40.6967 124.868H51.4498H78.244C78.2452 124.868 78.2462 124.868 78.2472 124.868H90.4001H96.196H115.083C115.084 124.868 115.085 124.868 115.086 124.868H124.862C125.574 124.868 126.151 124.303 126.151 123.606V105.352C126.151 104.655 125.574 104.09 124.862 104.09ZM50.1616 122.343H41.985V95.1036H50.1616V122.343ZM76.9557 122.343H69.4022V122.343H52.7381V115.363H76.9557V122.343ZM76.9557 104.338H65.3453C64.634 104.338 64.0571 104.903 64.0571 105.6C64.0571 106.298 64.634 106.863 65.3453 106.863H76.9557V112.838H52.7381V106.863H59.3334C60.0448 106.863 60.6216 106.298 60.6216 105.6C60.6216 104.903 60.0448 104.338 59.3334 104.338H52.7381V98.3632H76.9557V104.338ZM76.9557 95.8387H52.7381V93.8412V89.8637H76.9557V95.8387ZM76.9557 87.3391H52.7381V81.3643H76.9557V87.3391ZM76.9557 78.8396H52.7381V72.8647H76.9557V78.8396ZM76.9557 70.3399H52.7381V62.8038H76.9557V70.3399ZM89.1118 83.5777V90.836V94.623V101.881V105.668V112.927V116.714V122.344H79.5323V61.5414C79.5323 60.8443 78.9556 60.279 78.244 60.279H76.4876V57.7544C76.4876 57.0573 75.9109 56.492 75.1994 56.492C74.4878 56.492 73.9111 57.0573 73.9111 57.7544V60.279H70.6905V42.657H94.9076V82.3153H90.3999C89.6885 82.3153 89.1118 82.8804 89.1118 83.5777ZM123.574 122.343H116.374V106.614H123.574V122.343Z" fill="black"/>
<path d="M90.4001 67.4828C89.6885 67.4828 89.1118 68.0481 89.1118 68.7452V72.5322C89.1118 73.2294 89.6887 73.7945 90.4001 73.7945C91.1116 73.7945 91.6883 73.2293 91.6883 72.5322V68.7452C91.6883 68.0481 91.1116 67.4828 90.4001 67.4828Z" fill="black"/>
<path d="M82.7998 67.4828C82.0883 67.4828 81.5116 68.0481 81.5116 68.7452V72.5322C81.5116 73.2294 82.0885 73.7945 82.7998 73.7945C83.5114 73.7945 84.0881 73.2293 84.0881 72.5322V68.7452C84.0881 68.0481 83.5114 67.4828 82.7998 67.4828Z" fill="black"/>
<path d="M90.4001 56.4919C89.6885 56.4919 89.1118 57.0572 89.1118 57.7543V61.5413C89.1118 62.2384 89.6887 62.8037 90.4001 62.8037C91.1116 62.8037 91.6883 62.2384 91.6883 61.5413V57.7543C91.6883 57.0572 91.1116 56.4919 90.4001 56.4919Z" fill="black"/>
<path d="M82.7998 56.4919C82.0883 56.4919 81.5116 57.0572 81.5116 57.7543V61.5413C81.5116 62.2384 82.0885 62.8037 82.7998 62.8037C83.5114 62.8037 84.0881 62.2384 84.0881 61.5413V57.7543C84.0881 57.0572 83.5114 56.4919 82.7998 56.4919Z" fill="black"/>
<path d="M75.1994 45.5013C74.4878 45.5013 73.9111 46.0666 73.9111 46.7637V50.5507C73.9111 51.2478 74.488 51.8131 75.1994 51.8131C75.9109 51.8131 76.4876 51.2478 76.4876 50.5507V46.7637C76.4876 46.0666 75.9111 45.5013 75.1994 45.5013Z" fill="black"/>
<path d="M90.4001 45.5013C89.6885 45.5013 89.1118 46.0666 89.1118 46.7637V50.5507C89.1118 51.2478 89.6887 51.8131 90.4001 51.8131C91.1116 51.8131 91.6883 51.2478 91.6883 50.5507V46.7637C91.6883 46.0666 91.1116 45.5013 90.4001 45.5013Z" fill="black"/>
<path d="M82.7998 45.5013C82.0883 45.5013 81.5116 46.0666 81.5116 46.7637V50.5507C81.5116 51.2478 82.0885 51.8131 82.7998 51.8131C83.5114 51.8131 84.0881 51.2478 84.0881 50.5507V46.7637C84.0881 46.0666 83.5114 45.5013 82.7998 45.5013Z" fill="black"/>
<path d="M89.7117 78.7248C89.1904 79.0462 88.971 79.7149 89.2108 80.2731C89.4166 80.7492 89.9008 81.0643 90.4309 81.0515C90.971 81.0386 91.4517 80.6884 91.6226 80.1864C91.9982 79.0822 90.7096 78.1095 89.7117 78.7248Z" fill="black"/>
<path d="M82.7998 78.5281C82.0883 78.5281 81.5116 79.0934 81.5116 79.7905V83.5775C81.5116 84.2747 82.0885 84.8398 82.7998 84.8398C83.5114 84.8398 84.0881 84.2746 84.0881 83.5775V79.7905C84.0881 79.0932 83.5114 78.5281 82.7998 78.5281Z" fill="black"/>
<path d="M82.7998 111.664C82.0883 111.664 81.5116 112.229 81.5116 112.927V116.714C81.5116 117.411 82.0885 117.976 82.7998 117.976C83.5114 117.976 84.0881 117.411 84.0881 116.714V112.927C84.0881 112.229 83.5114 111.664 82.7998 111.664Z" fill="black"/>
<path d="M82.7998 100.619C82.0883 100.619 81.5116 101.184 81.5116 101.881V105.668C81.5116 106.365 82.0885 106.931 82.7998 106.931C83.5114 106.931 84.0881 106.365 84.0881 105.668V101.881C84.0881 101.184 83.5114 100.619 82.7998 100.619Z" fill="black"/>
<path d="M82.7998 89.5736C82.0883 89.5736 81.5116 90.1389 81.5116 90.836V94.623C81.5116 95.3201 82.0885 95.8854 82.7998 95.8854C83.5114 95.8854 84.0881 95.3201 84.0881 94.623V90.836C84.0881 90.1387 83.5114 89.5736 82.7998 89.5736Z" fill="black"/>
<path d="M109.869 111.28H95.617C94.9054 111.28 94.3287 111.845 94.3287 112.542C94.3287 113.239 94.9054 113.804 95.617 113.804H109.869C110.581 113.804 111.157 113.239 111.157 112.542C111.157 111.845 110.581 111.28 109.869 111.28Z" fill="black"/>
<path d="M109.869 117.247H95.617C94.9054 117.247 94.3287 117.812 94.3287 118.509C94.3287 119.206 94.9054 119.772 95.617 119.772H109.869C110.581 119.772 111.157 119.206 111.157 118.509C111.157 117.812 110.581 117.247 109.869 117.247Z" fill="black"/>
<path d="M109.869 105.313H95.617C94.9054 105.313 94.3287 105.878 94.3287 106.575C94.3287 107.272 94.9054 107.837 95.617 107.837H109.869C110.581 107.837 111.157 107.272 111.157 106.575C111.157 105.878 110.581 105.313 109.869 105.313Z" fill="black"/>
<path d="M109.869 87.4113H95.617C94.9054 87.4113 94.3287 87.9765 94.3287 88.6736C94.3287 89.3707 94.9054 89.936 95.617 89.936H109.869C110.581 89.936 111.157 89.3707 111.157 88.6736C111.157 87.9765 110.581 87.4113 109.869 87.4113Z" fill="black"/>
<path d="M109.869 99.3455H95.617C94.9054 99.3455 94.3287 99.9107 94.3287 100.608C94.3287 101.305 94.9054 101.87 95.617 101.87H109.869C110.581 101.87 111.157 101.305 111.157 100.608C111.157 99.9107 110.581 99.3455 109.869 99.3455Z" fill="black"/>
<path d="M109.869 93.3785H95.617C94.9054 93.3785 94.3287 93.9438 94.3287 94.6409C94.3287 95.338 94.9054 95.9033 95.617 95.9033H109.869C110.581 95.9033 111.157 95.338 111.157 94.6409C111.157 93.9438 110.581 93.3785 109.869 93.3785Z" fill="black"/>
<path d="M46.0732 97.11C45.3616 97.11 44.7849 97.6753 44.7849 98.3724V101.654C44.7849 102.351 45.3616 102.917 46.0732 102.917C46.7847 102.917 47.3614 102.351 47.3614 101.654V98.3724C47.3614 97.6753 46.7846 97.11 46.0732 97.11Z" fill="black"/>
<path d="M46.0732 105.82C45.3616 105.82 44.7849 106.385 44.7849 107.082V110.364C44.7849 111.062 45.3616 111.627 46.0732 111.627C46.7847 111.627 47.3614 111.062 47.3614 110.364V107.082C47.3614 106.385 46.7846 105.82 46.0732 105.82Z" fill="black"/>
<path d="M46.0732 114.53C45.3616 114.53 44.7849 115.095 44.7849 115.792V119.074C44.7849 119.771 45.3616 120.337 46.0732 120.337C46.7847 120.337 47.3614 119.771 47.3614 119.074V115.792C47.3614 115.095 46.7846 114.53 46.0732 114.53Z" fill="black"/>
<path d="M119.974 109.644C119.263 109.644 118.686 110.209 118.686 110.906V114.479C118.686 115.176 119.263 115.741 119.974 115.741C120.686 115.741 121.263 115.176 121.263 114.479V110.906C121.263 110.209 120.686 109.644 119.974 109.644Z" fill="black"/>
<path d="M116.197 64.453H100.482C99.7701 64.453 99.1934 65.0183 99.1934 65.7154C99.1934 66.4125 99.7701 66.9778 100.482 66.9778H116.197C116.909 66.9778 117.486 66.4125 117.486 65.7154C117.486 65.0183 116.909 64.453 116.197 64.453Z" fill="black"/>
<path d="M121.093 69.7546H109.756C109.045 69.7546 108.468 70.3199 108.468 71.017C108.468 71.7141 109.045 72.2794 109.756 72.2794H121.093C121.804 72.2794 122.381 71.7141 122.381 71.017C122.381 70.3199 121.804 69.7546 121.093 69.7546Z" fill="black"/>
<path d="M62.6087 49.5576H51.2726C50.5611 49.5576 49.9844 50.1229 49.9844 50.82C49.9844 51.5171 50.5612 52.0824 51.2726 52.0824H62.6087C63.3203 52.0824 63.897 51.5171 63.897 50.82C63.897 50.1229 63.3205 49.5576 62.6087 49.5576Z" fill="black"/>
<path d="M56.1678 53.7654H44.8318C44.1203 53.7654 43.5436 54.3307 43.5436 55.0278C43.5436 55.7249 44.1204 56.2901 44.8318 56.2901H56.1679C56.8795 56.2901 57.4562 55.7249 57.4562 55.0278C57.4562 54.3307 56.8795 53.7654 56.1678 53.7654Z" fill="black"/>
</g>
<path d="M53.8564 176.336H48.1924V191H45.4804V176.336H39.7924V173.96H53.8564V176.336ZM63.0161 191.12C61.8001 191.12 60.6881 190.88 59.6801 190.4C58.6881 189.92 57.8321 189.272 57.1121 188.456C56.3921 187.624 55.8321 186.696 55.4321 185.672C55.0481 184.632 54.8561 183.568 54.8561 182.48C54.8561 181.344 55.0641 180.264 55.4801 179.24C55.8961 178.2 56.4721 177.28 57.2081 176.48C57.9441 175.664 58.8081 175.024 59.8001 174.56C60.8081 174.08 61.8961 173.84 63.0641 173.84C64.2801 173.84 65.3841 174.088 66.3761 174.584C67.3841 175.08 68.2401 175.744 68.9441 176.576C69.6641 177.408 70.2161 178.336 70.6001 179.36C71.0001 180.384 71.2001 181.432 71.2001 182.504C71.2001 183.64 70.9921 184.728 70.5761 185.768C70.1761 186.792 69.6081 187.712 68.8721 188.528C68.1361 189.328 67.2641 189.96 66.2561 190.424C65.2641 190.888 64.1841 191.12 63.0161 191.12ZM57.5921 182.48C57.5921 183.552 57.8161 184.568 58.2641 185.528C58.7121 186.472 59.3361 187.24 60.1361 187.832C60.9521 188.408 61.9201 188.696 63.0401 188.696C63.8881 188.696 64.6481 188.52 65.3201 188.168C65.9921 187.816 66.5601 187.344 67.0241 186.752C67.4881 186.144 67.8401 185.472 68.0801 184.736C68.3201 184 68.4401 183.248 68.4401 182.48C68.4401 181.408 68.2161 180.4 67.7681 179.456C67.3361 178.512 66.7121 177.752 65.8961 177.176C65.0801 176.584 64.1281 176.288 63.0401 176.288C62.1761 176.288 61.4081 176.464 60.7361 176.816C60.0641 177.168 59.4961 177.64 59.0321 178.232C58.5681 178.824 58.2081 179.488 57.9521 180.224C57.7121 180.96 57.5921 181.712 57.5921 182.48ZM88.551 191V178.856L83.535 188.072H81.951L76.911 178.856V191H74.223V173.96H77.103L82.743 184.376L88.383 173.96H91.263V191H88.551ZM94.2658 182.36C94.2658 181.32 94.4498 180.296 94.8178 179.288C95.1858 178.28 95.7218 177.368 96.4258 176.552C97.1458 175.736 98.0098 175.088 99.0178 174.608C100.042 174.112 101.21 173.864 102.522 173.864C104.058 173.864 105.386 174.208 106.506 174.896C107.626 175.584 108.458 176.48 109.002 177.584L106.89 179C106.57 178.312 106.162 177.776 105.666 177.392C105.186 176.992 104.658 176.712 104.082 176.552C103.522 176.376 102.97 176.288 102.426 176.288C101.53 176.288 100.746 176.472 100.074 176.84C99.4018 177.192 98.8338 177.664 98.3698 178.256C97.9218 178.848 97.5778 179.512 97.3378 180.248C97.1138 180.984 97.0018 181.72 97.0018 182.456C97.0018 183.56 97.2338 184.592 97.6978 185.552C98.1778 186.496 98.8258 187.264 99.6418 187.856C100.474 188.432 101.426 188.72 102.498 188.72C103.042 188.72 103.61 188.624 104.202 188.432C104.794 188.24 105.338 187.944 105.834 187.544C106.33 187.128 106.73 186.584 107.034 185.912L109.266 187.184C108.914 188.032 108.362 188.752 107.61 189.344C106.874 189.936 106.042 190.384 105.114 190.688C104.202 190.992 103.298 191.144 102.402 191.144C101.202 191.144 100.106 190.896 99.1138 190.4C98.1218 189.888 97.2658 189.216 96.5458 188.384C95.8258 187.536 95.2658 186.592 94.8658 185.552C94.4658 184.496 94.2658 183.432 94.2658 182.36ZM112.016 191V173.96H114.704V181.088H116.696L122.048 173.96H125.12L118.856 182.216L125.576 191H122.288L116.696 183.56H114.704V191H112.016Z" fill="black"/>
<defs>
<filter id="filter0_d" x="0.253174" y="0" width="166.061" height="165" filterUnits="userSpaceOnUse" color-interpolation-filters="sRGB">
<feFlood flood-opacity="0" result="BackgroundImageFix"/>
<feColorMatrix in="SourceAlpha" type="matrix" values="0 0 0 0 0 0 0 0 0 0 0 0 0 0 0 0 0 0 127 0"/>
<feMorphology radius="1" operator="dilate" in="SourceAlpha" result="effect1_dropShadow"/>
<feOffset/>
<feGaussianBlur stdDeviation="10"/>
<feColorMatrix type="matrix" values="0 0 0 0 0.945098 0 0 0 0 0.709804 0 0 0 0 0.698039 0 0 0 1 0"/>
<feBlend mode="normal" in2="BackgroundImageFix" result="effect1_dropShadow"/>
<feBlend mode="normal" in="SourceGraphic" in2="effect1_dropShadow" result="shape"/>
</filter>
<clipPath id="clip0">
<rect width="86.7421" height="85" fill="white" transform="translate(39.4084 40)"/>
</clipPath>
</defs>
</svg>
